<?xml version="1.0" standalone="no"?><!DOCTYPE svg PUBLIC "-//W3C//DTD SVG 1.1//EN" "http://www.w3.org/Graphics/SVG/1.1/DTD/svg11.dtd" ><svg xmlns="http://www.w3.org/2000/svg"><metadata></metadata><defs><font id="KaiTi" horiz-adv-x="256"><font-face font-family="KaiTi" font-weight="400" font-stretch="normal" units-per-em="256" panose-1="2 1 6 9 6 1 1 1 1 1" ascent="220" descent="-36" x-height="1" bbox="-3 -37 263 217" underline-thickness="12" underline-position="-22" unicode-range="U+0028-ff1f" /><missing-glyph horiz-adv-x="256" d="M224 -13 l-196 0 l0 206 l196 0 l0 -206 ZM216 186 l-181 0 l0 -192 l181 0 l0 192 Z" /><glyph glyph-name="" unicode="(" d="M119 -8 l-11 -11 q-25 24 -37.5 50 q-12.5 26 -12.5 59 q0 33 12.5 59 q12.5 26 37.5 51 l11 -11 q-23 -22 -34.5 -45.5 q-11.5 -23.5 -11.5 -53.5 q0 -30 11.5 -53.5 q11.5 -23.5 34.5 -44.5 Z" /><glyph glyph-name="" unicode=")" d="M67 90 q0 -33 -12.5 -59 q-12.5 -26 -37.5 -50 l-11 11 q23 21 34.5 44.5 q11.5 23.5 11.5 53.5 q0 30 -11.5 53.5 q-11.5 23.5 -34.5 45.5 l11 11 q25 -25 37.5 -51 q12.5 -26 12.5 -59 Z" /><glyph glyph-name="" unicode="+" d="M120 85 l-49 0 l0 -49 l-17 0 l0 49 l-49 0 l0 16 l49 0 l0 49 l17 0 l0 -49 l49 0 l0 -16 Z" /><glyph glyph-name="" unicode="." d="M32 3 q-5 0 -9.5 3.5 q-4.5 3.5 -4.5 10.5 q0 6 3.5 9.5 q3.5 3.5 10.5 4.5 q7 0 10.5 -4 q3.5 -4 3.5 -10 q0 -7 -4 -10.5 q-4 -3.5 -10 -3.5 Z" /><glyph glyph-name="" unicode="/" d="M120 182 l-106 -189 l-10 6 l106 189 l10 -6 Z" /><glyph glyph-name="" unicode="0" d="M9 101.5 q1 26.5 7.5 42 q6.5 15.5 18.5 25.5 q12 10 29.5 10 q17.5 0 30.5 -14.5 q13 -14.5 17 -36.5 q4 -22 2.5 -50.5 q-1.5 -28.5 -10 -46.5 q-8.5 -18 -25.5 -25 q-17 -7 -34 1.5 q-17 8.5 -24 22.5 q-7 14 -10 29.5 q-3 15.5 -2 42 ZM30 107.5 q-3 -27.5 2 -49 q5 -21.5 16.5 -30.5 q11.5 -9 23.5 -3.5 q12 5.5 17.5 22 q5.5 16.5 5.5 36 q0 19.5 -1.5 35.5 q-1.5 16 -9 29 q-7.5 13 -20 13.5 q-12.5 0.5 -22 -12.5 q-9.5 -13 -12.5 -40.5 Z" /><glyph glyph-name="" unicode="1" d="M56 144 q-13 -13 -33 -25 l0 19 q25 17 41 40 l12 0 l0 -172 l-20 0 l0 138 Z" /><glyph glyph-name="" unicode="2" d="M12 10 q1 15 14 27 q13 12 33 37.5 q20 25.5 26 39.5 q6 14 4.5 24 q-1.5 10 -9.5 16.5 q-8 6.5 -18.5 5.5 q-10.5 -1 -20 -8 q-9.5 -7 -14.5 -21 l-19 3 q8 23 20.5 33.5 q12.5 10.5 29.5 11.5 q10 1 18 -0.5 q8 -1.5 16.5 -7 q8.5 -5.5 14 -16.5 q5.5 -11 4 -26.5 q-1.5 -15.5 -15.5 -37 q-14 -21.5 -54 -67.5 l72 0 l0 -18 l-101 0 l0 4 Z" /><glyph glyph-name="" unicode="3" d="M10 49 l18 3 q4 -13 13 -21.5 q9 -8.5 22.5 -8 q13.5 0.5 21.5 11 q8 10.5 7 24 q-1 13.5 -10.5 21 q-9.5 7.5 -30.5 10.5 l0 13 q21 2 30.5 11 q9.5 9 8.5 23.5 q-1 14.5 -13 21 q-12 6.5 -25.5 1.5 q-13.5 -5 -21.5 -28 l-18 3 q6 18 16.5 30 q10.5 12 28.5 14 q18 2 31.5 -4.5 q13.5 -6.5 19 -20 q5.5 -13.5 1.5 -29.5 q-4 -16 -23 -28 q14 -6 21.5 -18 q7.5 -12 5 -31.5 q-2.5 -19.5 -17.5 -31.5 q-15 -12 -34 -11.5 q-19 0.5 -33 12 q-14 11.5 -18 33.5 Z" /><glyph glyph-name="" unicode="4" d="M80 44 l-77 0 l0 17 l81 117 l15 0 l0 -117 l24 0 l0 -17 l-24 0 l0 -38 l-19 0 l0 38 ZM80 61 l0 79 l-56 -79 l56 0 Z" /><glyph glyph-name="" unicode="5" d="M22 53 q7 -27 24 -30 q17 -3 27.5 3.5 q10.5 6.5 15 17 q4.5 10.5 4 23.5 q-0.5 13 -7 22 q-6.5 9 -16.5 12 q-10 3 -22.5 0 q-12.5 -3 -20.5 -14 l-17 2 q2 6 19 86 l79 0 l0 -18 l-64 0 q-5 -27 -10 -43 q15 7 28 6.5 q13 -0.5 25 -6 q12 -5.5 17.5 -15 q5.5 -9.5 8 -19 q2.5 -9.5 2 -20.5 q-0.5 -11 -4.5 -22.5 q-4 -11.5 -12 -19 q-8 -7.5 -19.5 -12 q-11.5 -4.5 -26.5 -3.5 q-15 1 -28.5 11 q-13.5 10 -18.5 34 l18 5 Z" /><glyph glyph-name="" unicode="6" d="M10 64.5 q1 14.5 5.5 24.5 q4.5 10 13.5 25 l41 64 l23 0 l-42 -66 q27 7 43 -2 q16 -9 21.5 -20.5 q5.5 -11.5 6 -25 q0.5 -13.5 -4 -26.5 q-4.5 -13 -16 -23.5 q-11.5 -10.5 -32 -11.5 q-20.5 -1 -35 7.5 q-14.5 8.5 -20 24 q-5.5 15.5 -4.5 30 ZM41 31.5 q9 -9.5 24 -10.5 q15 -1 25 10 q10 11 10 32 q0 21 -12.5 29 q-12.5 8 -28 6 q-15.5 -2 -22.5 -15 q-7 -13 -6 -27.5 q1 -14.5 10 -24 Z" /><glyph glyph-name="" unicode="7" d="M34 6 q18 76 63 151 l-86 0 l0 18 l107 0 l0 -17 q-47 -76 -62 -152 l-22 0 Z" /><glyph glyph-name="" unicode="8" d="M7 55 q0 12 6 23.5 q6 11.5 20 18.5 q-12 7 -16 15.5 q-4 8.5 -4.5 19.5 q-0.5 11 3 19 q3.5 8 10.5 15 q7 7 15.5 9.5 q8.5 2.5 18.5 2.5 q10 0 18 -2 q8 -2 17 -8.5 q9 -6.5 13 -18.5 q4 -12 -0.5 -28 q-4.5 -16 -23.5 -25 q17 -5 24 -15.5 q7 -10.5 7 -25.5 q0 -15 -4.5 -24 q-4.5 -9 -10 -15 q-5.5 -6 -15 -9.5 q-9.5 -3.5 -24 -3.5 q-14.5 0 -25 3.5 q-10.5 3.5 -17.5 10.5 q-7 7 -9.5 16.5 q-2.5 9.5 -2.5 21.5 ZM27.5 56 q-0.5 -12 4 -21 q4.5 -9 16.5 -11.5 q12 -2.5 25 0.5 q13 3 18 14 q5 11 3.5 22 q-1.5 11 -12.5 18.5 q-11 7.5 -24 6.5 q-13 -1 -21.5 -9 q-8.5 -8 -9 -20 ZM31 134 q0 -10 7 -19 q7 -9 22 -9 q15 0 22.5 9 q7.5 9 7 21.5 q-0.5 12.5 -9 18.5 q-8.5 6 -23 5 q-14.5 -1 -20.5 -8.5 q-6 -7.5 -6 -17.5 Z" /><glyph glyph-name="" unicode="9" d="M32 3 q22 37 36 67 q-25 -4 -41.5 6.5 q-16.5 10.5 -20 28.5 q-3.5 18 0.5 32.5 q4 14.5 12.5 24 q8.5 9.5 20.5 13.5 q12 4 21.5 4 q9.5 0 19.5 -4 q10 -4 18 -12 q8 -8 11 -16.5 q3 -8.5 3 -22 q0 -13.5 -10 -34.5 q-10 -21 -49 -87 l-22 0 ZM26.5 115 q1.5 -13 11 -21.5 q9.5 -8.5 20.5 -7.5 q11 1 17.5 6 q6.5 5 12.5 17 q4 15 2 25.5 q-2 10.5 -10.5 17.5 q-8.5 7 -18.5 7 q-6 1 -15.5 -3 q-9.5 -4 -15 -16 q-5.5 -12 -4 -25 Z" /><glyph glyph-name="" unicode=":" d="M74 93 q0 -7 -4.5 -11.5 q-4.5 -4.5 -10.5 -4.5 q-6 0 -10.5 4.5 q-4.5 4.5 -4.5 11.5 q0 6 4.5 10.5 q4.5 4.5 10.5 4.5 q6 0 10.5 -4.5 q4.5 -4.5 4.5 -10.5 ZM74 17 q0 -7 -4.5 -11.5 q-4.5 -4.5 -10.5 -4.5 q-6 0 -10.5 4.5 q-4.5 4.5 -4.5 11.5 q0 6 4.5 10.5 q4.5 4.5 10.5 4.5 q6 0 10.5 -4.5 q4.5 -4.5 4.5 -10.5 Z" /><glyph glyph-name="" unicode="=" d="M119 116 l-114 0 l0 16 l114 0 l0 -16 ZM119 55 l-114 0 l0 16 l114 0 l0 -16 Z" /><glyph glyph-name="" unicode="@" d="M120 106 q0 -37 -10.5 -51 q-10.5 -14 -22.5 -14 q-5 0 -9 3 q-4 3 -6 9 q-5 -6 -10 -9 q-5 -3 -10 -3 q-10 0 -17 8.5 q-7 8.5 -7 24.5 q0 27 14 48 q14 21 27 21 q5 0 7 -1 q2 -1 5 -7 l5 8 l11 0 l-14 -76 q-1 -6 1 -9 q2 -3 6 -3 q11 0 15.5 13.5 q4.5 13.5 4.5 37.5 q0 30 -11.5 47 q-11.5 17 -30.5 17 q-21 0 -37 -20.5 q-16 -20.5 -16 -62.5 q0 -42 15 -59 q15 -17 36 -17 q8 0 17 4.5 q9 4.5 14 13.5 l5 -7 q-6 -8 -15.5 -13.5 q-9.5 -5.5 -20.5 -5.5 q-25 0 -43 19.5 q-18 19.5 -18 64.5 q0 45 19 68 q19 23 44 23 q24 0 38 -20 q14 -20 14 -52 ZM78 119 q1 6 -1 9.5 q-2 3.5 -7 3.5 q-8 0 -17 -18.5 q-9 -18.5 -9 -38.5 q0 -11 3.5 -16 q3.5 -5 8.5 -5 q6 0 9 5 q3 5 4 11 l9 49 Z" /><glyph glyph-name="" unicode="a" d="M123 5 l-24 0 l-14 53 l-44 0 l-14 -53 l-24 0 l50 173 l20 0 l50 -173 ZM80 77 l-16 61 l-2 0 l-16 -61 l34 0 Z" /><glyph glyph-name="" unicode="b" d="M118 56 q0 -29 -16 -40 q-16 -11 -41 -11 l-50 0 l0 171 l52 0 q25 0 37.5 -13 q12.5 -13 12.5 -31 q0 -18 -8.5 -26.5 q-8.5 -8.5 -17.5 -11.5 q12 -3 21.5 -12.5 q9.5 -9.5 9.5 -25.5 ZM90 132 q0 13 -7.5 19 q-7.5 6 -18.5 6 l-30 0 l0 -53 l29 0 q11 0 19 6.5 q8 6.5 8 21.5 ZM94 56 q0 16 -10.5 22.5 q-10.5 6.5 -23.5 6.5 l-26 0 l0 -61 l23 0 q18 0 27.5 7 q9.5 7 9.5 25 Z" /><glyph glyph-name="" unicode="c" d="M119 73 q-1 -38 -16 -54 q-15 -16 -36 -16 q-24 0 -41 19.5 q-17 19.5 -17 62.5 q0 47 16.5 70 q16.5 23 42.5 23 q22 0 36.5 -16.5 q14.5 -16.5 13.5 -46.5 l-22 0 q0 22 -7 33 q-7 11 -21 11 q-16 0 -25.5 -16.5 q-9.5 -16.5 -9.5 -55.5 q0 -36 9.5 -50.5 q9.5 -14.5 24.5 -14.5 q11 0 20 10.5 q9 10.5 9 40.5 l23 0 Z" /><glyph glyph-name="" unicode="d" d="M117 90 q0 -46 -19.5 -65.5 q-19.5 -19.5 -52.5 -19.5 l-34 0 l0 171 l34 0 q37 0 54.5 -20 q17.5 -20 17.5 -66 ZM93 90 q0 37 -12 52 q-12 15 -36 15 l-11 0 l0 -133 l11 0 q24 0 36 14.5 q12 14.5 12 51.5 Z" /><glyph glyph-name="" unicode="e" d="M116 5 l-102 0 l0 171 l97 0 l0 -19 l-74 0 l0 -53 l68 0 l0 -19 l-68 0 l0 -61 l79 0 l0 -19 Z" /><glyph glyph-name="" unicode="h" d="M114 5 l-23 0 l0 80 l-57 0 l0 -80 l-23 0 l0 171 l23 0 l0 -72 l57 0 l0 72 l23 0 l0 -171 Z" /><glyph glyph-name="" unicode="o" d="M118 91 q0 -47 -14.5 -67.5 q-14.5 -20.5 -40.5 -20.5 q-26 0 -41 20.5 q-15 20.5 -15 67.5 q0 47 15 67 q15 20 41 20 q26 0 40.5 -20 q14.5 -20 14.5 -67 ZM94 91 q0 42 -9 55 q-9 13 -22 13 q-13 0 -22.5 -13 q-9.5 -13 -9.5 -55 q0 -42 9.5 -55.5 q9.5 -13.5 22.5 -13.5 q13 0 22 13.5 q9 13.5 9 55.5 Z" /><glyph glyph-name="" unicode="p" d="M118 124 q0 -24 -14 -38 q-14 -14 -39 -14 l-29 0 l0 -67 l-23 0 l0 171 l52 0 q25 0 39 -14 q14 -14 14 -38 ZM95 124 q0 19 -9 26 q-9 7 -27 7 l-23 0 l0 -66 l23 0 q18 0 27 7 q9 7 9 26 Z" /><glyph glyph-name="" unicode="s" d="M116 53 q0 -23 -14.5 -36.5 q-14.5 -13.5 -39.5 -13.5 q-25 0 -39 14 q-14 14 -14 35 l0 7 l23 0 l0 -6 q0 -15 9 -23 q9 -8 21 -8 q16 0 23.5 8.5 q7.5 8.5 7.5 20.5 q0 10 -9 18.5 q-9 8.5 -26 15.5 q-24 9 -34.5 20 q-10.5 11 -10.5 26 q0 21 14.5 34 q14.5 13 34.5 13 q26 0 37.5 -15.5 q11.5 -15.5 11.5 -33.5 l-23 0 q1 11 -6 20 q-7 9 -20 9 q-12 0 -19 -6.5 q-7 -6.5 -7 -17.5 q0 -9 5.5 -15.5 q5.5 -6.5 28.5 -15.5 q22 -9 34 -21.5 q12 -12.5 12 -28.5 Z" /><glyph glyph-name="" unicode="t" d="M114 157 l-40 0 l0 -152 l-23 0 l0 152 l-40 0 l0 19 l103 0 l0 -19 Z" /><glyph glyph-name="" unicode="a" d="M115 5 l-24 0 q-2 2 -3 5.5 q-1 3.5 -1 8.5 q-7 -8 -17 -12 q-10 -4 -21 -4 q-16 0 -27 8 q-11 8 -11 23 q0 15 10 24 q10 9 31 12 q14 2 24.5 5 q10.5 3 10.5 8 q0 6 -4.5 12 q-4.5 6 -19.5 6 q-12 0 -17.5 -4.5 q-5.5 -4.5 -7.5 -12.5 l-22 0 q2 16 14.5 25.5 q12.5 9.5 32.5 9.5 q22 0 33 -10 q11 -10 11 -28 l0 -55 q0 -6 2 -11 q2 -5 6 -10 ZM87 42 l0 20 q-6 -2 -11.5 -3.5 q-5.5 -1.5 -18.5 -3.5 q-15 -2 -19.5 -7 q-4.5 -5 -4.5 -12 q0 -6 4.5 -10.5 q4.5 -4.5 13.5 -4.5 q9 0 19.5 5 q10.5 5 16.5 16 Z" /><glyph glyph-name="" unicode="b" d="M113 61 q0 -29 -14 -43.5 q-14 -14.5 -34 -14.5 q-11 0 -19 4 q-8 4 -14 13 l0 -15 l-20 0 l0 171 l20 0 l0 -74 q6 9 14 13.5 q8 4.5 19 4.5 q20 0 34 -15 q14 -15 14 -44 ZM91 61 q0 19 -7.5 30 q-7.5 11 -22.5 11 q-12 0 -20.5 -11 q-8.5 -11 -8.5 -30 q0 -19 8.5 -29.5 q8.5 -10.5 20.5 -10.5 q15 0 22.5 10.5 q7.5 10.5 7.5 29.5 Z" /><glyph glyph-name="" unicode="c" d="M114 50 q0 -21 -14.5 -34 q-14.5 -13 -36.5 -13 q-22 0 -38 15.5 q-16 15.5 -16 42.5 q0 27 16 42.5 q16 15.5 38 15.5 q22 0 35 -11.5 q13 -11.5 13 -27.5 l-22 0 q-1 12 -8.5 16.5 q-7.5 4.5 -17.5 4.5 q-12 0 -22 -9.5 q-10 -9.5 -10 -30.5 q0 -21 10 -30.5 q10 -9.5 22 -9.5 q13 0 21 7 q8 7 8 22 l22 0 Z" /><glyph glyph-name="" unicode="d" d="M110 5 l-20 0 l0 15 q-6 -9 -14 -13 q-8 -4 -19 -4 q-20 0 -34 14.5 q-14 14.5 -14 43.5 q0 29 14 44 q14 15 34 15 q11 0 19 -4.5 q8 -4.5 14 -13.5 l0 74 l20 0 l0 -171 ZM90 61 q0 19 -8.5 30 q-8.5 11 -20.5 11 q-15 0 -22.5 -11 q-7.5 -11 -7.5 -30 q0 -19 7.5 -29.5 q7.5 -10.5 22.5 -10.5 q12 0 20.5 10.5 q8.5 10.5 8.5 29.5 Z" /><glyph glyph-name="" unicode="e" d="M114 43 q-2 -18 -16 -29 q-14 -11 -33 -11 q-24 0 -39.5 15.5 q-15.5 15.5 -15.5 42.5 q0 27 15.5 42.5 q15.5 15.5 39.5 15.5 q21 0 34.5 -13.5 q13.5 -13.5 13.5 -44.5 l-81 0 q0 -22 9.5 -31 q9.5 -9 23.5 -9 q11 0 18 5.5 q7 5.5 9 16.5 l22 0 ZM90 77 q-2 14 -9 19.5 q-7 5.5 -18 5.5 q-10 0 -18 -5.5 q-8 -5.5 -12 -19.5 l57 0 Z" /><glyph glyph-name="" unicode="f" d="M114 153 q-5 3 -12 5 q-7 2 -18 2 q-11 0 -15 -5.5 q-4 -5.5 -4 -13.5 l0 -24 l41 0 l0 -16 l-41 0 l0 -96 l-20 0 l0 96 l-34 0 l0 16 l34 0 l0 23 q0 18 11 28 q11 10 29 10 q11 0 17.5 -1.5 q6.5 -1.5 11.5 -3.5 l0 -20 Z" /><glyph glyph-name="" unicode="g" d="M119 100 q-7 2 -13.5 2.5 q-6.5 0.5 -13.5 -1.5 q3 -3 5 -7.5 q2 -4.5 2 -13.5 q0 -17 -11.5 -28 q-11.5 -11 -28.5 -11 q-4 0 -10.5 1.5 q-6.5 1.5 -10.5 3.5 q-3 -2 -4 -4 q-1 -2 -1 -5 q0 -5 7 -7.5 q7 -2.5 25 -2.5 q29 0 39.5 -8 q10.5 -8 10.5 -20 q0 -16 -15.5 -23.5 q-15.5 -7.5 -36.5 -7.5 q-27 0 -40 7 q-13 7 -13 19 q0 6 5 12 q5 6 13 10 q-6 3 -9.5 7.5 q-3.5 4.5 -3.5 11.5 q0 6 4.5 10.5 q4.5 4.5 10.5 7.5 q-5 5 -8 12 q-3 7 -3 15 q0 17 11.5 28 q11.5 11 28.5 11 q9 0 15.5 -2.5 q6.5 -2.5 11.5 -7.5 q8 6 16 8.5 q8 2.5 17 1.5 l0 -19 ZM79 80 q0 10 -5 16 q-5 6 -15 6 q-10 0 -15 -6 q-5 -6 -5 -16 q0 -10 5 -16 q5 -6 15 -6 q10 0 15 6 q5 6 5 16 ZM96 -3 q0 4 -4.5 8 q-4.5 4 -22.5 4 q-4 0 -11 0.5 q-7 0.5 -16 1.5 q-8 -3 -11 -7 q-3 -4 -3 -8 q0 -6 8 -10 q8 -4 28 -4 q17 0 24.5 4.5 q7.5 4.5 7.5 10.5 Z" /><glyph glyph-name="" unicode="h" d="M112 5 l-20 0 l0 72 q0 12 -6 19 q-6 7 -16 7 q-13 0 -24.5 -13.5 q-11.5 -13.5 -11.5 -33.5 l0 -51 l-20 0 l0 171 l20 0 l0 -80 q8 11 17.5 17 q9.5 6 24.5 6 q18 0 27 -10 q9 -10 9 -25 l0 -79 Z" /><glyph glyph-name="" unicode="i" d="M72 5 l-20 0 l0 112 l20 0 l0 -112 ZM76.5 163 q0.5 -8 -6.5 -12 q-7 -4 -14 -0.5 q-7 3.5 -7.5 11.5 q-0.5 8 6.5 12 q7 4 14 0.5 q7 -3.5 7.5 -11.5 Z" /><glyph glyph-name="" unicode="j" d="M92 6 q0 -18 -11 -28 q-11 -10 -29 -10 q-11 0 -17.5 1.5 q-6.5 1.5 -11.5 3.5 l0 20 q5 -3 12 -5 q7 -2 18 -2 q11 0 15 5.5 q4 5.5 4 13.5 l0 112 l20 0 l0 -111 ZM96.5 163 q0.5 -8 -6.5 -12 q-7 -4 -14 -0.5 q-7 3.5 -7.5 11.5 q-0.5 8 6.5 12 q7 4 14 0.5 q7 -3.5 7.5 -11.5 Z" /><glyph glyph-name="" unicode="k" d="M117 5 l-23 0 l-36 61 l-23 -22 l0 -39 l-20 0 l0 171 l20 0 l0 -109 l50 50 l25 0 l-39 -38 l46 -74 Z" /><glyph glyph-name="" unicode="l" d="M73 5 l-20 0 l0 171 l20 0 l0 -171 Z" /><glyph glyph-name="" unicode="m" d="M122 5 l-20 0 l0 81 q0 6 -2 10 q-2 4 -8 4 q-7 0 -13 -7.5 q-6 -7.5 -6 -19.5 l0 -68 l-20 0 l0 81 q0 6 -2 10 q-2 4 -8 4 q-7 0 -13 -7.5 q-6 -7.5 -6 -19.5 l0 -68 l-20 0 l0 112 l20 0 l0 -15 q5 8 12 12.5 q7 4.5 15 4.5 q8 0 13.5 -4.5 q5.5 -4.5 7.5 -12.5 q5 8 11.5 12.5 q6.5 4.5 14.5 4.5 q12 0 18 -6.5 q6 -6.5 6 -18.5 l0 -89 Z" /><glyph glyph-name="" unicode="n" d="M112 5 l-20 0 l0 72 q0 12 -6 19 q-6 7 -16 7 q-13 0 -24.5 -13.5 q-11.5 -13.5 -11.5 -33.5 l0 -51 l-20 0 l0 112 l20 0 l0 -21 q8 11 17.5 17 q9.5 6 24.5 6 q18 0 27 -10 q9 -10 9 -25 l0 -79 Z" /><glyph glyph-name="" unicode="o" d="M117 61 q0 -26 -16 -42 q-16 -16 -38 -16 q-22 0 -38 16 q-16 16 -16 42 q0 26 16 42 q16 16 38 16 q22 0 38 -16 q16 -16 16 -42 ZM95 61 q0 20 -10 30 q-10 10 -22 10 q-12 0 -22 -10 q-10 -10 -10 -30 q0 -20 10 -30 q10 -10 22 -10 q12 0 22 10 q10 10 10 30 Z" /><glyph glyph-name="" unicode="p" d="M113 61 q0 -29 -14 -44 q-14 -15 -34 -15 q-11 0 -19 4.5 q-8 4.5 -14 13.5 l0 -52 l-20 0 l0 149 l20 0 l0 -15 q6 9 14 13 q8 4 19 4 q20 0 34 -14.5 q14 -14.5 14 -43.5 ZM91 61 q0 19 -7.5 29.5 q-7.5 10.5 -22.5 10.5 q-12 0 -20.5 -10.5 q-8.5 -10.5 -8.5 -29.5 q0 -19 8.5 -30 q8.5 -11 20.5 -11 q15 0 22.5 11 q7.5 11 7.5 30 Z" /><glyph glyph-name="" unicode="q" d="M110 -32 l-20 0 l0 52 q-6 -9 -14 -13.5 q-8 -4.5 -19 -4.5 q-20 0 -34 15 q-14 15 -14 44 q0 29 14 43.5 q14 14.5 34 14.5 q11 0 19 -4 q8 -4 14 -13 l0 15 l20 0 l0 -149 ZM90 61 q0 19 -8.5 29.5 q-8.5 10.5 -20.5 10.5 q-15 0 -22.5 -10.5 q-7.5 -10.5 -7.5 -29.5 q0 -19 7.5 -30 q7.5 -11 22.5 -11 q12 0 20.5 11 q8.5 11 8.5 30 Z" /><glyph glyph-name="" unicode="r" d="M100 97 q-19 3 -32 -5.5 q-13 -8.5 -22 -29.5 l0 -57 l-20 0 l0 112 l20 0 l0 -29 q9 16 22.5 23.5 q13.5 7.5 31.5 7.5 l0 -22 Z" /><glyph glyph-name="" unicode="s" d="M110 36 q0 -16 -12.5 -24.5 q-12.5 -8.5 -31.5 -8.5 q-24 0 -37 9.5 q-13 9.5 -13 27.5 l20 0 q0 -12 8.5 -16 q8.5 -4 20.5 -4 q12 0 18 4.5 q6 4.5 6 11.5 q0 5 -5 10 q-5 5 -25 8 q-23 3 -31.5 11.5 q-8.5 8.5 -8.5 22.5 q0 12 11.5 21.5 q11.5 9.5 33.5 9.5 q20 0 31.5 -9 q11.5 -9 11.5 -24 l-20 0 q0 9 -6.5 12.5 q-6.5 3.5 -16.5 3.5 q-13 0 -18.5 -4.5 q-5.5 -4.5 -5.5 -10.5 q0 -7 5 -11 q5 -4 21 -6 q26 -4 35 -12.5 q9 -8.5 9 -21.5 Z" /><glyph glyph-name="" unicode="t" d="M110 8 q-5 -2 -11.5 -3.5 q-6.5 -1.5 -17.5 -1.5 q-18 0 -29 10 q-11 10 -11 28 l0 60 l-34 0 l0 16 l34 0 l0 39 l20 0 l0 -39 l41 0 l0 -16 l-41 0 l0 -61 q0 -8 4 -13.5 q4 -5.5 15 -5.5 q11 0 18 2 q7 2 12 5 l0 -20 Z" /><glyph glyph-name="" unicode="u" d="M112 5 l-20 0 l0 21 q-8 -11 -17.5 -17 q-9.5 -6 -24.5 -6 q-18 0 -27 10 q-9 10 -9 25 l0 79 l20 0 l0 -72 q0 -12 6 -19 q6 -7 16 -7 q13 0 24.5 13.5 q11.5 13.5 11.5 33.5 l0 51 l20 0 l0 -112 Z" /><glyph glyph-name="" unicode="v" d="M115 117 l-42 -114 l-22 0 l-42 114 l21 0 l31 -87 l2 0 l31 87 l21 0 Z" /><glyph glyph-name="" unicode="w" d="M123 117 l-25 -114 l-19 0 l-16 87 l-2 0 l-16 -87 l-19 0 l-25 114 l21 0 l13 -75 l2 0 l14 75 l22 0 l14 -75 l2 0 l13 75 l21 0 Z" /><glyph glyph-name="" unicode="x" d="M115 5 l-24 0 l-29 43 l-29 -43 l-24 0 l41 57 l-38 55 l24 0 l26 -42 l26 42 l24 0 l-38 -55 l41 -57 Z" /><glyph glyph-name="" unicode="y" d="M116 117 l-46 -121 q-4 -14 -12 -21 q-8 -7 -20 -7 q-5 0 -9.5 0.5 q-4.5 0.5 -8.5 2.5 l0 20 q4 -2 8 -3 q4 -1 7 -1 q8 0 11 2.5 q3 2.5 6 11.5 l-44 116 l22 0 l32 -88 l1 0 l31 88 l22 0 Z" /><glyph glyph-name="" unicode="z" d="M111 5 l-97 0 l0 16 l68 80 l-64 0 l0 16 l88 0 l0 -16 l-68 -80 l73 0 l0 -16 Z" /><glyph glyph-name="" unicode="&#x201c;" d="M136 147 q12 1 16.5 -5 q4.5 -6 3.5 -13 q-1 -7 -7.5 -12 q-6.5 -5 -15 -2.5 q-8.5 2.5 -12 10.5 q-3.5 8 0 19 q3.5 11 11 20.5 q7.5 9.5 19.5 18.5 q12 9 14.5 8 q2.5 -1 -7 -9.5 q-9.5 -8.5 -14.5 -15.5 q-5 -7 -9 -19 ZM190 147 q12 1 16.5 -5 q4.5 -6 3.5 -13 q-1 -7 -7.5 -12 q-6.5 -5 -15 -2.5 q-8.5 2.5 -12 10.5 q-3.5 8 0 19 q3.5 11 11 20.5 q7.5 9.5 19.5 18.5 q12 9 14.5 8 q2.5 -1 -7 -9.5 q-9.5 -8.5 -14.5 -15.5 q-5 -7 -9 -19 Z" /><glyph glyph-name="" unicode="&#x201d;" d="M65 155 q-11 0 -15 5.5 q-4 5.5 -3.5 13 q0.5 7.5 6 12 q5.5 4.5 14.5 2 q9 -2.5 12 -10.5 q3 -8 -0.5 -18 q-3.5 -10 -10.5 -19 q-7 -9 -18.5 -18.5 q-11.5 -9.5 -13.5 -8.5 q-2 1 7 10 q9 9 13 15.5 q4 6.5 9 16.5 ZM117 155 q-11 0 -15 5.5 q-4 5.5 -3.5 13 q0.5 7.5 6 12 q5.5 4.5 14.5 2 q9 -2.5 12 -10.5 q3 -8 -0.5 -18 q-3.5 -10 -10.5 -19 q-7 -9 -18.5 -18.5 q-11.5 -9.5 -13.5 -8.5 q-2 1 7 10 q9 9 13 15.5 q4 6.5 9 16.5 Z" /><glyph glyph-name="" unicode="&#x2192;" d="M156 171 l63 -79 l-63 -76 l0 60 l-140 0 l0 33 l140 0 l0 62 Z" /><glyph glyph-name="" unicode="&#x3001;" d="M28 47 l1 3 q23 -5 35.5 -12.5 q12.5 -7.5 18 -13.5 q5.5 -6 7 -16 q1.5 -10 -6 -16 q-7.5 -6 -16.5 15.5 q-9 21.5 -39 39.5 Z" /><glyph glyph-name="" unicode="&#x3002;" d="M91 39 q4 -11 1 -21.5 q-3 -10.5 -11 -16 q-8 -5.5 -19 -5.5 q-11 0 -20 9 q-9 9 -9 19.5 q0 10.5 5 18.5 q5 8 15.5 12 q10.5 4 22 -0.5 q11.5 -4.5 15.5 -15.5 ZM73 11 q9 6 8.5 16.5 q-0.5 10.5 -10 15.5 q-9.5 5 -18 -1 q-8.5 -6 -8.5 -16 q0 -10 9.5 -15.5 q9.5 -5.5 18.5 0.5 Z" /><glyph glyph-name="" unicode="&#x3007;" d="M204 160.5 q28 -29.5 26 -72 q-2 -42.5 -30 -69 q-28 -26.5 -71.5 -26.5 q-43.5 0 -72.5 26.5 q-29 26.5 -31 69.5 q-2 43 31 74.5 q33 31.5 76.5 29 q43.5 -2.5 71.5 -32 ZM71 151 q-26 -24 -25 -60 q1 -36 24.5 -57 q23.5 -21 57.5 -22 q34 -1 57 21.5 q23 22.5 23 58.5 q0 36 -23 59 q-23 23 -55.5 23.5 q-32.5 0.5 -58.5 -23.5 Z" /><glyph glyph-name="" unicode="&#x300a;" d="M185 214 l13 -5 l-55 -117 l55 -114 l-13 -5 l-58 120 l58 121 ZM225 214 l13 -5 l-56 -117 l56 -114 l-13 -5 l-59 120 l59 121 Z" /><glyph glyph-name="" unicode="&#x300b;" d="M30 214 l56 -122 l-56 -119 l-13 5 l55 115 l-55 116 l13 5 ZM69 214 l58 -122 l-58 -119 l-13 5 l57 115 l-57 116 l13 5 Z" /><glyph glyph-name="" unicode="&#x3010;" d="M218 -16 l-92 0 l0 217 l93 0 q-51 -55 -53 -106.5 q-2 -51.5 52 -110.5 Z" /><glyph glyph-name="" unicode="&#x3011;" d="M36 201 l90 0 l0 -217 l-91 0 q49 57 51 107.5 q2 50.5 -50 109.5 Z" /><glyph glyph-name="" unicode="&#xff01;" d="M63 182 l30 0 l-7 -120 l-16 0 l-7 120 ZM86.5 31.5 q8.5 -5.5 8.5 -14.5 q0 -9 -8 -14 q-8 -5 -16.5 -0.5 q-8.5 4.5 -9.5 14 q-1 9.5 8 15 q9 5.5 17.5 0 Z" /><glyph glyph-name="" unicode="&#xff08;" d="M217 204 l11 -13 q-57 -42 -55 -97 q1 -53 54 -92 l-11 -13 q-61 44 -59 111 q0 55 60 104 Z" /><glyph glyph-name="" unicode="&#xff09;" d="M40 204 q60 -49 60 -104 q2 -67 -59 -111 l-11 13 q53 39 54 92 q2 55 -55 97 l11 13 Z" /><glyph glyph-name="" unicode="&#xff0b;" d="M137 188 l0 -89 l86 0 l0 -15 l-86 0 l0 -87 l-18 0 l0 87 l-87 0 l0 15 l87 0 l0 89 l18 0 Z" /><glyph glyph-name="" unicode="&#xff0c;" d="M55 0 q-9 0 -13 3 q-4 3 -5.5 8 q-1.5 5 -0.5 9.5 q1 4.5 7 9 q6 4.5 15 2.5 q9 -2 12 -10 q3 -8 -1 -20.5 q-4 -12.5 -14.5 -24 q-10.5 -11.5 -18.5 -12.5 q-8 -1 -2 3.5 q6 4.5 11.5 11.5 q5.5 7 9.5 20 Z" /><glyph glyph-name="" unicode="&#xff0d;" d="M223 104 l0 -16 l-190 0 l0 16 l190 0 Z" /><glyph glyph-name="" unicode="&#xff0f;" d="M183 192 l-92 -205 l-14 4 l91 205 l15 -4 Z" /><glyph glyph-name="" unicode="&#xff1a;" d="M81 91.5 q0 -10.5 -10.5 -15 q-10.5 -4.5 -18.5 1 q-8 5.5 -7.5 15 q0.5 9.5 9.5 14 q9 4.5 18 0 q9 -4.5 9 -15 ZM81 16.5 q0 -10.5 -10.5 -15 q-10.5 -4.5 -18.5 1 q-8 5.5 -7.5 15 q0.5 9.5 9.5 14 q9 4.5 18 0 q9 -4.5 9 -15 Z" /><glyph glyph-name="" unicode="&#xff1b;" d="M66 1 q-6 -2 -11.5 0 q-5.5 2 -7 6.5 q-1.5 4.5 -1 9.5 q0.5 5 3.5 8 q3 3 8.5 4.5 q5.5 1.5 11 0 q5.5 -1.5 9.5 -9 q4 -7.5 0.5 -19.5 q-3.5 -12 -11 -17.5 q-7.5 -5.5 -15 -6.5 q-7.5 -1 -1.5 2.5 q6 3.5 9.5 8 q3.5 4.5 4.5 13.5 ZM81 91.5 q0 -10.5 -10.5 -15 q-10.5 -4.5 -18.5 1 q-8 5.5 -7.5 15 q0.5 9.5 9.5 14 q9 4.5 18 0 q9 -4.5 9 -15 Z" /><glyph glyph-name="" unicode="&#xff1d;" d="M35 76 l186 0 l0 -17 l-186 0 l0 17 ZM35 126 l186 0 l0 -17 l-186 0 l0 17 Z" /><glyph glyph-name="" unicode="&#xff1f;" d="M80 184 q26 3 42 -27 q10 -34 -27 -68 q-12 -18 -12 -39 l-18 0 q-1 37 33 70 q8 12 7 26 q-6 20 -23 19 l-4 0 q-21 -1 -20 -31 l-19 0 q-1 37 25 46 q4 3 16 4 ZM61 29 l28 0 l0 -29 l-28 0 l0 29 Z" /><glyph glyph-name="" unicode="&#x4e00;" d="M27 83 q-13 10 -2.5 9 q10.5 -1 40 1.5 q29.5 2.5 62.5 7.5 q33 5 59 9.5 q26 4.5 41 -3 q15 -7.5 13.5 -12.5 q-1.5 -5 -14 -4 q-12.5 1 -37.5 1 q-25 0 -53.5 -2.5 q-28.5 -2.5 -48 -6 q-19.5 -3.5 -33 -6.5 q-13.5 -3 -27.5 6 Z" /><glyph glyph-name="" unicode="&#x4e03;" d="M114 107 q26 10 48 18.5 q22 8.5 33 13.5 q11 5 22 -2 q11 -7 1.5 -10 q-9.5 -3 -36.5 -10.5 q-27 -7.5 -68 -22.5 q-1 -39 2 -48.5 q3 -9.5 12 -15 q9 -5.5 28.5 -5 q19.5 0.5 32.5 4 q13 3.5 19.5 9 q6.5 5.5 11 24 q4.5 18.5 4 -2 q-0.5 -20.5 3.5 -28 q4 -7.5 -8.5 -13 q-12.5 -5.5 -25 -7.5 q-12.5 -2 -30 -3 q-17.5 -1 -34.5 3 q-17 4 -22.5 17 q-5.5 13 -5.5 29 l0 32 q-43 -18 -51.5 -21 q-8.5 -3 -21.5 2.5 q-13 5.5 1.5 8.5 q14.5 3 30 8.5 q15.5 5.5 41.5 14.5 q0 22 -1 44.5 q-1 22.5 -7.5 32 q-6.5 9.5 2.5 8 q9 -1.5 18.5 -6.5 q9.5 -5 6 -11 q-3.5 -6 -4.5 -31 q-1 -25 -1 -32 Z" /><glyph glyph-name="" unicode="&#x4e07;" d="M123 168 q59 8 75 11 q16 3 26 -4.5 q10 -7.5 8 -10 q-2 -2.5 -15 -2.5 q-12 0 -35.5 -1 q-23.5 -1 -57.5 -6 q11 -9 9 -12 q-2 -3 -11 -28 q5 -2 21 0 q16 2 21.5 4.5 q5.5 2.5 13.5 -1.5 q8 -4 13 -9 q5 -5 -1 -11 q-6 -6 -9 -23.5 q-3 -17.5 -11.5 -41.5 q-8.5 -24 -24 -35 q-15.5 -11 -16.5 0 q-1 11 -13.5 23 q-12.5 12 3.5 5 q16 -7 22.5 -4 q6.5 3 13 19.5 q6.5 16.5 11 34 q4.5 17.5 2.5 25.5 q-2 8 -12 6.5 q-10 -1.5 -18 -4 q-8 -2.5 -19 4.5 q-10 -22 -19.5 -37.5 q-9.5 -15.5 -20 -27 q-10.5 -11.5 -23 -20 q-12.5 -8.5 -25 -13.5 q-12.5 -5 6 10 q18.5 15 34.5 35.5 q16 20.5 26 42 q10 21.5 13.5 36.5 q3.5 15 -0.5 19 q-45 -6 -58 -8.5 q-13 -2.5 -20.5 2 q-7.5 4.5 -9.5 8 q-2 3.5 3.5 3 q5.5 -0.5 30 1.5 q24.5 2 66.5 9 Z" /><glyph glyph-name="" unicode="&#x4e08;" d="M140 131 q26 6 37 9 q11 3 19.5 -4 q8.5 -7 -6 -9.5 q-14.5 -2.5 -51.5 -9.5 q-2 -39 -13 -65 q28 -25 50 -36.5 q22 -11.5 38.5 -14 q16.5 -2.5 23 -4.5 q6.5 -2 -10.5 -6 q-17 -4 -32.5 -4.5 q-15.5 -0.5 -22.5 6 q-7 6.5 -19.5 17.5 q-12.5 11 -33.5 31 q-21 -23 -46.5 -31.5 q-25.5 -8.5 -38 -8 q-12.5 0.5 0 4 q12.5 3.5 37.5 16 q25 12.5 37 30.5 q-8 10 -20 23 q-12 13 -20.5 17.5 q-8.5 4.5 2.5 5 q11 0.5 18 -7.5 q7 -8 26 -27 q7 13 10 52 q-22 -4 -36 -7 q-14 -3 -23 -3.5 q-9 -0.5 -17 5 q-8 5.5 4.5 6 q12.5 0.5 72.5 12.5 q1 15 1 36 q0 21 -4 29.5 q-4 8.5 3.5 7 q7.5 -1.5 14.5 -5.5 q7 -4 3.5 -10 q-3.5 -6 -3.5 -18 q0 -12 -1 -36 Z" /><glyph glyph-name="" unicode="&#x4e09;" d="M18 14 q-12 7 -5 8 q7 1 33.5 3.5 q26.5 2.5 44.5 4.5 q18 2 37.5 4 q19.5 2 41.5 5 q22 3 39.5 4 q17.5 1 27.5 -8.5 q10 -9.5 6 -12.5 q-4 -3 -21.5 0 q-17.5 3 -40.5 3 q-22 0 -49.5 -2 q-27.5 -2 -55.5 -6.5 q-28 -4.5 -37 -7 q-9 -2.5 -21 4.5 ZM107 147 q-21 -2 -35.5 5.5 q-14.5 7.5 4 8.5 q18.5 1 42.5 4.5 q24 3.5 35.5 6 q11.5 2.5 20 1.5 q8.5 -1 15 -6 q6.5 -5 -4.5 -8 q-11 -3 -33.5 -6 q-22.5 -3 -43.5 -6 ZM107 85 q-16 -2 -30.5 4 q-14.5 6 -0.5 6.5 q14 0.5 32.5 3.5 q18.5 3 30 5 q11.5 2 22.5 2 q11 0 17.5 -5.5 q6.5 -5.5 -5.5 -8 q-12 -2.5 -20 -2.5 q-8 0 -18.5 -1.5 q-10.5 -1.5 -27.5 -3.5 Z" /><glyph glyph-name="" unicode="&#x4e0a;" d="M134 115 q15 3 24.5 5.5 q9.5 2.5 19.5 5.5 q10 3 20 -1 q10 -4 -2 -9 q-12 -5 -30.5 -7 q-18.5 -2 -31.5 -2 q-1 -21 -2 -80 q30 3 47 4.5 q17 1.5 26.5 3 q9.5 1.5 19.5 -1 q10 -2.5 16.5 -11 q6.5 -8.5 -20 -6.5 q-26.5 2 -49 1.5 q-22.5 -0.5 -50.5 -3 q-28 -2.5 -51.5 -5.5 q-23.5 -3 -30.5 -4.5 q-7 -1.5 -17.5 6.5 q-10.5 8 0.5 8 q11 0 37 2 q26 2 60 5 l0 108 q0 44 -7 55 q-7 11 11 4 q18 -7 15.5 -13.5 q-2.5 -6.5 -4 -24 q-1.5 -17.5 -1.5 -40.5 Z" /><glyph glyph-name="" unicode="&#x4e0b;" d="M130 161 q9 -12 6.5 -15.5 q-2.5 -3.5 -2.5 -34.5 q25 0 40.5 -5 q15.5 -5 18 -19 q2.5 -14 -21 -1.5 q-23.5 12.5 -37.5 20.5 q1 -78 -2 -102.5 q-3 -24.5 -7 -24.5 q-3 0 -8 10.5 q-5 10.5 -3 18.5 q2 8 4 18 q2 10 3 67 q1 57 -8 66 q-51 -8 -63 -10.5 q-12 -2.5 -22 6 q-10 8.5 0.5 8 q10.5 -0.5 40 2.5 q29.5 3 60 7.5 q30.5 4.5 59.5 9 q29 4.5 39 -3.5 q10 -8 7 -11 q-3 -3 -20.5 -2 q-17.5 1 -33.5 0 q-16 -1 -50 -4 Z" /><glyph glyph-name="" unicode="&#x4e0d;" d="M146 163 q13 -12 8 -16.5 q-5 -4.5 -23 -29.5 q1 -46 1.5 -69.5 q0.5 -23.5 -2 -44.5 q-2.5 -21 -10.5 -6.5 q-8 14.5 -4.5 26.5 q3.5 12 3.5 28 l0 49 q-26 -33 -48.5 -50.5 q-22.5 -17.5 -40 -24.5 q-17.5 -7 1.5 6.5 q19 13.5 41.5 36.5 q22.5 23 40.5 51 q-1 11 -4.5 17 q-3.5 6 3 4.5 q6.5 -1.5 13.5 -6.5 q13 22 11 29 q-60 -9 -73 -12 q-13 -3 -23.5 5 q-10.5 8 1.5 8.5 q12 0.5 23.5 1.5 q11.5 1 59 6.5 q47.5 5.5 61 9 q13.5 3.5 22.5 0 q9 -3.5 14 -9 q5 -5.5 -10 -5.5 q-14 0 -29 -0.5 q-15 -0.5 -37 -3.5 ZM161 88 q-14 14 14.5 2.5 q28.5 -11.5 41.5 -22 q13 -10.5 12.5 -25.5 q-0.5 -15 -11.5 -5.5 q-11 9.5 -27 23.5 q-16 14 -30 27 Z" /><glyph glyph-name="" unicode="&#x4e0e;" d="M107 147 q37 5 58 13 q21 8 29.5 2 q8.5 -6 -8 -11 q-16.5 -5 -42.5 -10 q-26 -5 -38 1 q-4 -19 -10 -48 q72 11 83.5 15.5 q11.5 4.5 18.5 1.5 q7 -3 14.5 -8 q7.5 -5 2 -13.5 q-5.5 -8.5 -6 -26.5 q-0.5 -18 -5.5 -41.5 q-5 -23.5 -19 -35.5 q-14 -12 -16.5 -3.5 q-2.5 8.5 -15.5 19.5 q-13 11 -4 8 q9 -3 19 -5 q10 -2 16.5 8.5 q6.5 10.5 9.5 46.5 q3 36 -6 37 q-9 1 -49 -5 q-40 -6 -49 -11 q-9 -5 -11.5 4.5 q-2.5 9.5 3.5 15.5 q6 6 10 28.5 q4 22.5 5.5 40 q1.5 17.5 -2.5 25.5 q-4 8 4 6.5 q8 -1.5 15 -6 q7 -4.5 3 -10 q-4 -5.5 -9 -38.5 ZM153 48 q-11 0 -33.5 -2 q-22.5 -2 -41 -5 q-18.5 -3 -27.5 -4 q-9 -1 -18.5 6 q-9.5 7 4.5 7 q15 0 47 3.5 q32 3.5 51 8 q19 4.5 28.5 -1.5 q9.5 -6 5 -8.5 q-4.5 -2.5 -15.5 -3.5 Z" /><glyph glyph-name="" unicode="&#x4e11;" d="M166 33 q22 2 39 3 q17 1 27 -3 q10 -4 11 -10.5 q1 -6.5 -14 -5.5 q-15 1 -32 2 q-17 1 -47 -1.5 q-30 -2.5 -56 -5 q-26 -2.5 -47 -6 q-21 -3.5 -31.5 4.5 q-10.5 8 0.5 8 q12 0 65 6 q12 45 14 58 q-9 -1 -15 -1 q-5 0 -13.5 5.5 q-8.5 5.5 3 6 q11.5 0.5 28.5 2.5 q8 35 8 56 q-14 -2 -20.5 -2.5 q-6.5 -0.5 -14 6.5 q-7.5 7 6.5 6.5 q14 -0.5 32.5 2 q18.5 2.5 33 5.5 q14.5 3 21 6.5 q6.5 3.5 15.5 -0.5 q9 -4 15.5 -9 q6.5 -5 1.5 -10.5 q-5 -5.5 -9.5 -20.5 q-4.5 -15 -9 -38.5 q-4.5 -23.5 -12.5 -64.5 ZM112 98 q8 2 20.5 4.5 q12.5 2.5 17 0.5 q4.5 -2 7.5 -6.5 q3 -4.5 -6 -6.5 q-9 -2 -41 -5 q-8 -30 -16 -59 q27 2 58 6 q14 85 16 107 q2 22 -10.5 21.5 q-12.5 -0.5 -39.5 -6.5 q9 -8 6.5 -13.5 q-2.5 -5.5 -12.5 -42.5 Z" /><glyph glyph-name="" unicode="&#x4e16;" d="M179 119 q24 3 38.5 5.5 q14.5 2.5 24.5 -6 q10 -8.5 -12 -8.5 q-22 0 -52 -3 q-3 -24 -4 -39 q12 -10 -2.5 -10.5 q-14.5 -0.5 -43.5 -4.5 q-2 -7 -5.5 -9.5 q-3.5 -2.5 -4.5 12 q-1 14.5 -2 43.5 q-19 -2 -36 -4 q0 -38 1 -78 q35 3 60.5 7 q25.5 4 40 6.5 q14.5 2.5 23 -3.5 q8.5 -6 7.5 -11 q-1 -5 -18 -3.5 q-17 1.5 -47.5 -1 q-30.5 -2.5 -46.5 -4.5 q-16 -2 -21.5 -6 q-5.5 -4 -9 2 q-3.5 6 -2 12.5 q1.5 6.5 1.5 17.5 q0 12 -2 60 q-25 -4 -33.5 -5.5 q-8.5 -1.5 -17.5 5.5 q-9 7 -3 8 q6 1 13.5 0.5 q7.5 -0.5 39.5 2.5 q-2 37 -7.5 43.5 q-5.5 6.5 2 6 q7.5 -0.5 15.5 -4 q8 -3.5 6 -10.5 q-2 -7 -2 -32 q15 2 34 4 q-1 50 -7 59 q-6 9 3 8 q9 -1 16.5 -5 q7.5 -4 4.5 -11.5 q-3 -7.5 -3 -48.5 l37 4 q5 57 0 66.5 q-5 9.5 2 9 q7 -0.5 16.5 -6 q9.5 -5.5 6.5 -9.5 q-3 -4 -5 -18 q-2 -14 -6 -40 ZM127 62 q28 6 35 5 q1 18 2 39 q-25 -3 -36 -5 q0 -17 -1 -39 Z" /><glyph glyph-name="" unicode="&#x4e1a;" d="M140 28 q2 58 2 99 q0 41 -6 52.5 q-6 11.5 2.5 9.5 q8.5 -2 17.5 -7.5 q9 -5.5 5 -11 q-4 -5.5 -5.5 -32.5 q-1.5 -27 -2.5 -71 q26 31 31 44 q5 13 4.5 19.5 q-0.5 6.5 14 -4 q14.5 -10.5 9 -13.5 q-5.5 -3 -23.5 -22 q-18 -19 -35 -33 q-1 -21 -1 -29 q29 3 49.5 5 q20.5 2 29.5 -6 q9 -8 6.5 -11.5 q-2.5 -3.5 -18 -1 q-15.5 2.5 -39.5 3 q-24 0.5 -72.5 -5 q-48.5 -5.5 -58 -8 q-9.5 -2.5 -18.5 4 q-9 6.5 -8 8 q1 1.5 10.5 1 q9.5 -0.5 25.5 0.5 q16 1 40 4 q0 34 -0.5 77.5 q-0.5 43.5 -7.5 56.5 q-7 13 2 11 q9 -2 17.5 -7 q8.5 -5 5.5 -10.5 q-3 -5.5 -4 -15 q-1 -9.5 -2 -111.5 q16 3 30 4 ZM58 83 q-9 15 -12 25.5 q-3 10.5 10 2.5 q13 -8 20.5 -18 q7.5 -10 4.5 -22 q-3 -12 -8.5 -7 q-5.5 5 -14.5 19 Z" /><glyph glyph-name="" unicode="&#x4e1b;" d="M151 120 q18 -24 38.5 -43 q20.5 -19 40.5 -27.5 q20 -8.5 4 -10.5 q-16 -2 -27.5 -1 q-11.5 1 -17.5 11.5 q-6 10.5 -15 24 q-9 13.5 -25 38.5 q-11 -38 -29 -56 q-18 -18 -35.5 -26 q-17.5 -8 -0.5 5.5 q17 13.5 31 33.5 q14 20 21 48.5 q7 28.5 8.5 45.5 q1.5 17 -2.5 25 q-4 8 4 6 q8 -2 14.5 -6.5 q6.5 -4.5 3 -9 q-3.5 -4.5 -5.5 -18.5 q-2 -14 -7 -40 ZM79 104 q22 -3 28.5 -9.5 q6.5 -6.5 3.5 -14.5 q-3 -8 -13 1.5 q-10 9.5 -20 17.5 q-9 -24 -20.5 -38.5 q-11.5 -14.5 -26.5 -22 q-15 -7.5 -1.5 6 q13.5 13.5 24 32.5 q10.5 19 15.5 40 q5 21 7 38 q2 17 -1.5 24.5 q-3.5 7.5 5 5 q8.5 -2.5 13.5 -6 q5 -3.5 2.5 -7.5 q-2.5 -4 -5 -20 q-2.5 -16 -11.5 -47 ZM32 3 q-10 8 3 7.5 q13 -0.5 34.5 1 q21.5 1.5 57 4.5 q35.5 3 57.5 6 q22 3 31 -3 q9 -6 8 -9 q-1 -3 -17 -3 l-36 0 q-20 0 -45.5 -1.5 q-25.5 -1.5 -44.5 -4.5 q-19 -3 -28 -4.5 q-9 -1.5 -20 6.5 Z" /><glyph glyph-name="" unicode="&#x4e1c;" d="M117 154 q24 4 35 6 q11 2 22 4.5 q11 2.5 21 -5 q10 -7.5 -11 -10 q-21 -2.5 -40 -4.5 q-19 -2 -34 -3 q-18 -31 -26 -41.5 q-8 -10.5 -6 -12.5 q2 -2 47 6 q-1 22 -4.5 29.5 q-3.5 7.5 3.5 5.5 q7 -2 14 -5.5 q7 -3.5 4 -7 q-3 -3.5 -4 -20.5 q23 3 37 6.5 q14 3.5 22.5 -6 q8.5 -9.5 -7.5 -9 q-16 0.5 -52 -3.5 q1 -52 1 -66 q0 -13 -3 -21 q-3 -8 -9.5 -14 q-6.5 -6 -9.5 2 q-3 8 -18 17 q-15 9 -2.5 7 q12.5 -2 20 -1 q7.5 1 8.5 12.5 q1 11.5 1 61.5 q-37 -6 -46.5 -8.5 q-9.5 -2.5 -18 -5.5 q-8.5 -3 -8 8 q0.5 11 9.5 17 q9 6 31 47 q-20 -3 -24.5 -4 q-4.5 -1 -12.5 -1 q-7 0 -14.5 6.5 q-7.5 6.5 3.5 6 q11 -0.5 53 4.5 q7 12 12.5 26 q5.5 14 3.5 22.5 q-2 8.5 6.5 5 q8.5 -3.5 14.5 -8.5 q6 -5 0.5 -9.5 q-5.5 -4.5 -19.5 -33.5 ZM177 44 q-19 17 4.5 11 q23.5 -6 30 -18 q6.5 -12 4 -19.5 q-2.5 -7.5 -11.5 -1 q-9 6.5 -27 27.5 ZM42 13 q0 11 10.5 20 q10.5 9 19 20.5 q8.5 11.5 7 -2 q-1.5 -13.5 -9 -25.5 q-7.5 -12 -17.5 -18 q-10 -6 -10 5 Z" /><glyph glyph-name="" unicode="&#x4e1d;" d="M183 116 q-2 -4 5.5 7 q7.5 11 8.5 18.5 q1 7.5 7.5 3.5 q6.5 -4 10.5 -9.5 q4 -5.5 -3.5 -10 q-7.5 -4.5 -29 -27 q-21.5 -22.5 -24.5 -25.5 q-3 -3 21.5 -1 q24.5 2 31 -1 q6.5 -3 -22 -8 q-28.5 -5 -38 -10 q-9.5 -5 -12.5 5.5 q-3 10.5 6 14 q9 3.5 36 38.5 q-30 -4 -35.5 -8.5 q-5.5 -4.5 -9.5 4.5 q-4 9 2.5 13 q6.5 4 21 28 q14.5 24 12.5 34 q-2 10 6 6.5 q8 -3.5 13.5 -8 q5.5 -4.5 0.5 -9 q-5 -4.5 -21.5 -27.5 q-16.5 -23 -18.5 -24.5 q-2 -1.5 32 -3.5 ZM98 114 q15 19 15 27 q0 8 6 4.5 q6 -3.5 11 -10.5 q5 -7 -2.5 -11.5 q-7.5 -4.5 -23.5 -20 q-16 -15.5 -26 -26 q-10 -10.5 -1.5 -9.5 q8.5 1 31 5 q22.5 4 15.5 -0.5 q-7 -4.5 -30 -11.5 q-23 -7 -30 -12 q-7 -5 -11.5 5 q-4.5 10 2.5 12.5 q7 2.5 40 41.5 q-25 -2 -34 -8 q-9 -6 -11.5 2.5 q-2.5 8.5 0 11 q2.5 2.5 9.5 9 q7 6.5 15 26 q8 19.5 7 29 q-1 9.5 6 6.5 q7 -3 13.5 -8 q6.5 -5 1 -9.5 q-5.5 -4.5 -14.5 -18.5 q-9 -14 -15 -23.5 q-6 -9.5 -1 -9.5 q5 0 28 -1 ZM34 12 q-12 9 -2.5 8 q9.5 -1 54 2.5 q44.5 3.5 84 8 q39.5 4.5 50 3 q10.5 -1.5 18 -8 q7.5 -6.5 3 -9 q-4.5 -2.5 -17 -0.5 q-12.5 2 -35.5 2 q-22 0 -63.5 -3.5 q-41.5 -3.5 -60 -7 q-18.5 -3.5 -30.5 4.5 Z" /><glyph glyph-name="" unicode="&#x4e24;" d="M147 165 q14 -10 12 -14.5 q-2 -4.5 -4 -23.5 q25 4 30.5 6.5 q5.5 2.5 13.5 0 q8 -2.5 16 -7.5 q8 -5 4 -15.5 q-4 -10.5 -4.5 -50 q-0.5 -39.5 -6 -52.5 q-5.5 -13 -14.5 -18.5 q-9 -5.5 -10.5 3 q-1.5 8.5 -16 18 q-14.5 9.5 -1.5 6.5 q13 -3 21 -2.5 q8 0.5 10.5 21.5 q2.5 21 2.5 44 q0 23 -2.5 30.5 q-2.5 7.5 -8.5 9.5 q-6 2 -34 -2 q-3 -17 -6 -29 q7 -2 16 -6 q9 -4 14 -11 q5 -7 2.5 -14 q-2.5 -7 -12.5 2 q-10 9 -21 24 q-14 -30 -33 -41 q-19 -11 -6 2 q13 13 21.5 30 q8.5 17 10.5 41 l-36 -4 q-1 -16 -4 -25 q15 -3 18 -9.5 q3 -6.5 0.5 -11.5 q-2.5 -5 -8.5 0.5 q-6 5.5 -11 13.5 q-6 -16 -16 -27 q-10 -11 -22 -16.5 q-12 -5.5 -1.5 4 q10.5 9.5 20 26 q9.5 16.5 11.5 43.5 q-22 -2 -42 -4 l0 -47 q0 -15 -1 -30 q-1 -15 -4 -20.5 q-3 -5.5 -8 3.5 q-5 9 -2.5 19 q2.5 10 3.5 40.5 q1 30.5 -5 39.5 q-6 9 1 7.5 q7 -1.5 12 -3.5 q5 -2 47 3 q1 29 -3 39 q-18 -2 -25 -2.5 q-7 -0.5 -16 6 q-9 6.5 4 6.5 q14 0 45 4 q31 4 51 7.5 q20 3.5 32 6.5 q12 3 22 -4 q10 -7 -3 -9.5 q-13 -2.5 -53 -6.5 ZM105 120 q17 2 37 5 q2 28 -5 39 q-20 -3 -36 -6 q10 -7 8 -11.5 q-2 -4.5 -4 -26.5 Z" /><glyph glyph-name="" unicode="&#x4e25;" d="M146 172 q9 -7 6 -15.5 q-3 -8.5 -4 -50.5 q29 5 43.5 8 q14.5 3 21.5 -4 q7 -7 -2 -9 q-9 -2 -31 -4 q-22 -2 -50 -4.5 q-28 -2.5 -57 -3.5 q0 -21 -5 -44 q-5 -23 -17.5 -40.5 q-12.5 -17.5 -30 -25 q-17.5 -7.5 -5 2.5 q12.5 10 22.5 25 q10 15 15 34.5 q5 19.5 5 34.5 q0 15 -3 22 q-3 7 2 6 q5 -1 8.5 -3 q3.5 -2 12.5 -2 q9 0 25 2 q0 41 -1.5 50 q-1.5 9 -3.5 15 q-15 -2 -21 -3 q-6 -1 -15 5.5 q-9 6.5 1 6.5 q11 0 33 2.5 q22 2.5 45 6.5 q23 4 36 7.5 q13 3.5 18.5 1 q5.5 -2.5 9.5 -7.5 q4 -5 -13 -7 q-17 -2 -46 -6 ZM109 167 q10 -7 8.5 -13 q-1.5 -6 -2.5 -18.5 q-1 -12.5 -1 -34.5 q11 1 23 3 q0 48 -3 66 l-25 -3 ZM161 124 q7 8 13 18 q6 10 6 17 q0 8 7 4.5 q7 -3.5 13 -9 q6 -5.5 -1 -8.5 q-7 -3 -15 -10.5 q-8 -7.5 -18.5 -13 q-10.5 -5.5 -4.5 1.5 ZM66 137 q-7 11 7.5 7 q14.5 -4 17 -12.5 q2.5 -8.5 0 -13.5 q-2.5 -5 -9.5 1.5 q-7 6.5 -15 17.5 Z" /><glyph glyph-name="" unicode="&#x4e2a;" d="M127 177 q35 -37 49 -49 q14 -12 29 -20.5 q15 -8.5 33 -14 q18 -5.5 3.5 -8 q-14.5 -2.5 -32.5 -1.5 q-18 1 -25 10 q-7 9 -21 27.5 q-14 18.5 -40 49.5 q-13 -24 -25.5 -41.5 q-12.5 -17.5 -30.5 -36.5 q-18 -19 -40 -30 q-22 -11 -3.5 4 q18.5 15 35.5 34.5 q17 19.5 29 38 q12 18.5 18 35 q6 16.5 3.5 24.5 q-2.5 8 6 5 q8.5 -3 15.5 -8.5 q7 -5.5 3.5 -9 q-3.5 -3.5 -7.5 -9.5 ZM129 115 q8 -3 4.5 -9 q-3.5 -6 -2.5 -55 q1 -49 -2.5 -65 q-3.5 -16 -10 -3.5 q-6.5 12.5 -5 20 q1.5 7.5 3.5 31.5 q2 24 -0.5 49 q-2.5 25 -8 31.5 q-5.5 6.5 4 5.5 q9.5 -1 16.5 -5 Z" /><glyph glyph-name="" unicode="&#x4e2d;" d="M134 146 q37 6 45.5 10.5 q8.5 4.5 15.5 0.5 q7 -4 15 -9.5 q8 -5.5 1 -10.5 q-7 -5 -18 -38 q15 -13 -4 -14 q-19 -1 -56 -5 q0 -76 -2 -91.5 q-2 -15.5 -6 -16.5 q-4 -1 -5 19.5 q-1 20.5 -1 87.5 q-19 -1 -46 -5 q-1 -10 -2.5 -13 q-1.5 -3 -4 -1 q-2.5 2 -4.5 12.5 q-2 10.5 -6.5 31.5 q-4.5 21 -10 29.5 q-5.5 8.5 0.5 8.5 q6 0 12.5 -2 q6.5 -2 24 0 q17.5 2 36.5 5 q0 41 -6.5 50 q-6.5 9 3.5 7.5 q10 -1.5 19 -6 q9 -4.5 4.5 -10 q-4.5 -5.5 -5.5 -40.5 ZM133 91 q22 2 48 6 q3 18 3.5 29 q0.5 11 -2.5 15 q-3 4 -14 2.5 q-11 -1.5 -34 -4.5 q-1 -28 -1 -48 ZM68 131 q2 -24 5 -48 q19 2 46 6 l0 48 q-37 -4 -51 -6 Z" /><glyph glyph-name="" unicode="&#x4e30;" d="M137 150 q12 1 28.5 6 q16.5 5 27.5 -3 q11 -8 -8 -9.5 q-19 -1.5 -48 -6.5 l0 -23 q18 3 26 5.5 q8 2.5 17 -5 q9 -7.5 -5 -8.5 q-14 -1 -38 -6 l0 -23 q36 4 52 6 q16 2 26.5 3.5 q10.5 1.5 21 -8 q10.5 -9.5 -4.5 -9.5 l-37 0 q-22 0 -58 -4 q0 -51 -3.5 -71.5 q-3.5 -20.5 -6.5 -20.5 q-3 0 -4 16.5 q-1 16.5 -1 73.5 q-66 -10 -75.5 -13 q-9.5 -3 -21.5 5 q-12 8 0 8 q13 0 39 3 q26 3 58 8 l0 24 q-14 -2 -22.5 -4 q-8.5 -2 -18 4.5 q-9.5 6.5 3 7 q12.5 0.5 37.5 5.5 l0 23 q-23 -4 -32.5 -7 q-9.5 -3 -22 4.5 q-12.5 7.5 3.5 8 q16 0.5 51 7.5 q0 37 -6.5 46 q-6.5 9 3 7.5 q9.5 -1.5 17.5 -5.5 q8 -4 5 -9.5 q-3 -5.5 -4 -35.5 Z" /><glyph glyph-name="" unicode="&#x4e34;" d="M204 24 q13 -10 0.5 -11 q-12.5 -1 -35 -2.5 q-22.5 -1.5 -41.5 -4.5 q-5 -15 -8 -5.5 q-3 9.5 -5.5 34 q-2.5 24.5 -7 33 q-4.5 8.5 1 7.5 q5.5 -1 10 -2.5 q4.5 -1.5 26.5 1.5 q22 3 33 5.5 q11 2.5 16.5 5.5 q5.5 3 14.5 -2 q9 -5 14 -9.5 q5 -4.5 -2.5 -11.5 q-7.5 -7 -16.5 -38 ZM88 178 q8 -5 5 -9.5 q-3 -4.5 -4 -29 q-1 -24.5 -0.5 -68.5 q0.5 -44 -3.5 -64.5 q-4 -20.5 -11 -6 q-7 14.5 -3 28 q4 13.5 4.5 62.5 q0.5 49 -0.5 62.5 q-1 13.5 -6.5 23.5 q-5.5 10 3.5 8 q9 -2 16 -7 ZM140 141 q37 5 51.5 11 q14.5 6 23.5 0.5 q9 -5.5 -1.5 -10 q-10.5 -4.5 -24 -6.5 q-13.5 -2 -29.5 -3.5 q-16 -1.5 -23 1.5 q-20 -28 -32.5 -36 q-12.5 -8 0 8 q12.5 16 24.5 42.5 q12 26.5 9 36.5 q-3 10 5 7.5 q8 -2.5 15 -7.5 q7 -5 2 -9.5 q-5 -4.5 -20 -34.5 ZM128 14 q14 2 29 4 q1 43 -5 49 q-10 -1 -27 -3 q1 -21 3 -50 ZM51 141 q7 -4 3 -9.5 q-4 -5.5 -4 -36.5 q0 -30 -3 -42.5 q-3 -12.5 -9.5 -2.5 q-6.5 10 -3.5 21 q3 11 3.5 35.5 q0.5 24.5 -5 33.5 q-5.5 9 3.5 7.5 q9 -1.5 15 -6.5 ZM167 69 q6 -5 3.5 -10 q-2.5 -5 -3.5 -40 q13 1 26 3 q5 30 4.5 38 q-0.5 8 -1.5 10.5 q-1 2.5 -6.5 2 q-5.5 -0.5 -22.5 -3.5 ZM150 110 q-8 12 9 7.5 q17 -4.5 21 -13 q4 -8.5 1 -13 q-3 -4.5 -12.5 1.5 q-9.5 6 -18.5 17 Z" /><glyph glyph-name="" unicode="&#x4e39;" d="M171 108 q26 3 42.5 6 q16.5 3 25 -7 q8.5 -10 -8 -9 q-16.5 1 -59.5 -1 q1 -31 1.5 -50 q0.5 -19 1 -31.5 q0.5 -12.5 -8.5 -25 q-9 -12.5 -13 -2.5 q-4 10 -20 19.5 q-16 9.5 -0.5 6.5 q15.5 -3 20.5 -1.5 q5 1.5 5 27.5 l0 56 q-21 -2 -59 -7 q-2 -26 -10.5 -48 q-8.5 -22 -20.5 -34.5 q-12 -12.5 -26 -18.5 q-14 -6 -0.5 6 q13.5 12 25.5 32.5 q12 20.5 17 60.5 q-30 -5 -41 -7.5 q-11 -2.5 -21.5 6 q-10.5 8.5 4.5 7.5 q15 -1 59 5 q1 28 0.5 49 q-0.5 21 -5 30.5 q-4.5 9.5 1 8 q5.5 -1.5 11 -3.5 q5.5 -2 14 -1 q8.5 1 23 4 q14.5 3 21 7 q6.5 4 14 0.5 q7.5 -3.5 13 -7.5 q5.5 -4 2.5 -9.5 q-3 -5.5 -5.5 -19 q-2.5 -13.5 -2.5 -48.5 ZM99 100 q22 2 58 7 q0 53 -1.5 63 q-1.5 10 -12 9 q-10.5 -1 -44.5 -6 q1 -36 0 -73 ZM118 144 q-6 12 6 7.5 q12 -4.5 15 -12 q3 -7.5 0.5 -14 q-2.5 -6.5 -9 0 q-6.5 6.5 -12.5 18.5 Z" /><glyph glyph-name="" unicode="&#x4e3a;" d="M130 126 q43 8 50.5 12.5 q7.5 4.5 16 1 q8.5 -3.5 15.5 -8.5 q7 -5 2.5 -10 q-4.5 -5 -6.5 -18.5 q-2 -13.5 -4.5 -31.5 q-2.5 -18 -10.5 -43 q-8 -25 -21 -36 q-13 -11 -16 -1 q-3 10 -17 20.5 q-14 10.5 -1 6.5 q13 -4 21.5 -5 q8.5 -1 15 12.5 q6.5 13.5 10.5 35 q4 21.5 5.5 43.5 q1.5 22 -9 21.5 q-10.5 -0.5 -55.5 -8.5 q-17 -43 -37.5 -67.5 q-20.5 -24.5 -44.5 -35 q-24 -10.5 -2.5 5.5 q21.5 16 38 38.5 q16.5 22.5 29.5 55.5 q-34 -7 -42.5 -9 q-8.5 -2 -16.5 5.5 q-8 7.5 5.5 7 q13.5 -0.5 57.5 6.5 q8 22 12 42 q4 20 1 28.5 q-3 8.5 5 6.5 q8 -2 16 -7.5 q8 -5.5 2 -13.5 q-6 -8 -19 -54 ZM135 70 q-4 5 -8 11 q-4 6 10.5 4 q14.5 -2 20.5 -11 q6 -9 2.5 -17.5 q-3.5 -8.5 -12.5 -0.5 l-13 14 ZM72 168 q-5 14 10 6.5 q15 -7.5 17.5 -18 q2.5 -10.5 -2 -15 q-4.5 -4.5 -12 4.5 q-7.5 9 -13.5 22 Z" /><glyph glyph-name="" unicode="&#x4e3b;" d="M126 122 q14 -9 11 -13.5 q-3 -4.5 -3 -30.5 q19 6 29 6 q11 0 14.5 -5.5 q3.5 -5.5 -12.5 -9 q-16 -3.5 -31 -5.5 q-1 -26 -1 -46 q48 4 65 7 q17 3 29.5 -3 q12.5 -6 12.5 -12 q0 -5 -25 -2 q-25 3 -64.5 0 q-39.5 -3 -68 -8 q-28.5 -5 -38.5 -7.5 q-10 -2.5 -19.5 6 q-9.5 8.5 -3.5 8.5 l19 0 q12 0 80 9 l0 45 l-26 -3 q-8 -1 -20 3.5 q-12 4.5 6 6.5 q18 2 40 7 q0 23 -1 31 q-1 8 -3 13 q-15 0 -26 -1 q-11 -1 -19.5 2.5 q-8.5 3.5 2 4.5 q10.5 1 29 5 q18.5 4 39.5 9.5 q21 5.5 31.5 6.5 q10.5 1 14.5 -3.5 q4 -4.5 -1.5 -7.5 q-5.5 -3 -24.5 -6.5 q-19 -3.5 -35 -6.5 ZM122 175 q-8 7 -13 13.5 q-5 6.5 12 4.5 q17 -2 23 -10 q6 -8 4.5 -16.5 q-1.5 -8.5 -9.5 -3.5 q-8 5 -17 12 Z" /><glyph glyph-name="" unicode="&#x4e3d;" d="M146 94 q22 -3 29 -10 q7 -7 4.5 -14.5 q-2.5 -7.5 -10.5 -2 q-8 5.5 -23 22.5 l0 -44 q0 -18 -3 -34.5 q-3 -16.5 -9.5 -7 q-6.5 9.5 -2.5 26 q4 16.5 4 51.5 q0 35 -5.5 44.5 q-5.5 9.5 1 8.5 q6.5 -1 11 -3 q4.5 -2 17 0.5 q12.5 2.5 17 6.5 q4.5 4 11.5 1.5 q7 -2.5 14 -6.5 q7 -4 2.5 -9.5 q-4.5 -5.5 -4 -25 q0.5 -19.5 2.5 -45.5 q2 -26 -1 -38.5 q-3 -12.5 -9.5 -19.5 q-6.5 -7 -9.5 2.5 q-3 9.5 -14 18 q-11 8.5 -1 6.5 q10 -2 15.5 -1.5 q5.5 0.5 5.5 23.5 q0 24 -1.5 46 q-1.5 22 -3 28.5 q-1.5 6.5 -5.5 7 q-4 0.5 -33 -4.5 l1 -28 ZM66 84 q14 -1 20 -7 q6 -6 4.5 -12 q-1.5 -6 -7.5 -3 q-6 3 -17 16 q-1 -45 -6 -64 q-5 -19 -10 -6 q-5 13 -1 27.5 q4 14.5 5.5 45.5 q1.5 31 -3.5 40.5 q-5 9.5 1.5 8 q6.5 -1.5 10 -3 q3.5 -1.5 13 1 q9.5 2.5 15 6 q5.5 3.5 11 1 q5.5 -2.5 11.5 -6.5 q6 -4 2 -9.5 q-4 -5.5 -4.5 -26.5 q-0.5 -21 1.5 -45.5 q2 -24.5 -5.5 -38 q-7.5 -13.5 -10.5 -6 q-3 7.5 -13 14.5 q-10 7 -1.5 6 q8.5 -1 12.5 1.5 q4 2.5 5 22 q1 19.5 0.5 41.5 q-0.5 22 -2 28 q-1.5 6 -6.5 6.5 q-5 0.5 -25 -3.5 l0 -35 ZM35 158 q-12 8 1.5 7.5 q13.5 -0.5 33.5 1 q20 1.5 60 6 q40 4.5 61 8.5 q21 4 31 -2 q10 -6 5.5 -9 q-4.5 -3 -24.5 -3 q-19 0 -55.5 -3 q-36.5 -3 -57.5 -6.5 q-21 -3.5 -32 -5.5 q-11 -2 -23 6 Z" /><glyph glyph-name="" unicode="&#x4e3e;" d="M148 138 q19 2 29.5 3.5 q10.5 1.5 25 4 q14.5 2.5 24 -4.5 q9.5 -7 -4 -9 q-13.5 -2 -33.5 -3 q-20 -1 -46 -2 q17 -15 36.5 -31 q19.5 -16 35 -22.5 q15.5 -6.5 28.5 -11 q13 -4.5 -6 -7 q-19 -2.5 -28 -1.5 q-9 1 -17 9.5 q-8 8.5 -21.5 24 q-13.5 15.5 -34.5 39.5 q-22 -2 -41 -4 q11 -8 6 -11.5 q-5 -3.5 -14.5 -16 q-9.5 -12.5 -25 -28.5 q-15.5 -16 -34.5 -24 q-19 -8 -3.5 3.5 q15.5 11.5 35 34 q19.5 22.5 23.5 41.5 q-28 -4 -39 -6.5 q-11 -2.5 -21 5.5 q-10 8 5 7.5 q15 -0.5 42 2 q27 2.5 71 6.5 q8 17 16 37 q8 20 5.5 29.5 q-2.5 9.5 6 6 q8.5 -3.5 15.5 -9.5 q7 -6 2 -10 q-5 -4 -12.5 -14 q-7.5 -10 -24.5 -38 ZM130 83 q7 1 15 3 q8 2 13.5 -4 q5.5 -6 -2.5 -8 q-8 -2 -26 -4 l0 -20 q26 4 37.5 6.5 q11.5 2.5 20.5 -4.5 q9 -7 -7.5 -8.5 q-16.5 -1.5 -50.5 -3.5 q0 -22 -2 -43 q-2 -21 -6.5 -24 q-4.5 -3 -5 20.5 q-0.5 23.5 0.5 44.5 q-33 -5 -41.5 -7.5 q-8.5 -2.5 -18.5 4.5 q-10 7 5 7 q16 0 55 6 l0 20 q-8 -1 -16.5 -2.5 q-8.5 -1.5 -16 4.5 q-7.5 6 3.5 6 q11 0 28 4 q0 19 -4.5 26 q-4.5 7 2.5 6.5 q7 -0.5 14.5 -3.5 q7.5 -3 4.5 -7.5 q-3 -4.5 -3 -18.5 ZM107 184 q-9 14 2.5 11.5 q11.5 -2.5 19.5 -10 q8 -7.5 5.5 -18 q-2.5 -10.5 -10 -4 q-7.5 6.5 -17.5 20.5 ZM69 169 q-7 13 6.5 8.5 q13.5 -4.5 18 -12.5 q4.5 -8 2 -15.5 q-2.5 -7.5 -11 -0.5 q-8.5 7 -15.5 20 Z" /><glyph glyph-name="" unicode="&#x4e45;" d="M90 141 q16 2 26 6 q10 4 16 8.5 q6 4.5 12.5 2 q6.5 -2.5 12.5 -7.5 q6 -5 -0.5 -9.5 q-6.5 -4.5 -12.5 -17.5 q-6 -13 -14 -32 q15 -21 39 -44 q24 -23 42.5 -31 q18.5 -8 29.5 -12 q11 -4 -0.5 -6 q-11.5 -2 -32.5 -2 q-21 0 -31.5 14.5 q-10.5 14.5 -23.5 34 q-13 19.5 -26 40.5 q-25 -41 -49.5 -59.5 q-24.5 -18.5 -47 -24 q-22.5 -5.5 -3 4.5 q19.5 10 39 26.5 q19.5 16.5 35 39.5 q15.5 23 24.5 47 q9 24 -2 21 q-11 -3 -20 -6.5 q-9 -3.5 -16 3.5 q-11 -16 -22 -28.5 q-11 -12.5 -23 -19 q-12 -6.5 -1 5.5 q11 12 22 28.5 q11 16.5 20.5 37.5 q9.5 21 8.5 30.5 q-1 9.5 7 5.5 q8 -4 13 -8.5 q5 -4.5 0.5 -8.5 q-4.5 -4 -23.5 -39 Z" /><glyph glyph-name="" unicode="&#x4e48;" d="M174 40 q-5 10 -11 21 q-6 11 6.5 4.5 q12.5 -6.5 24.5 -18 q12 -11.5 14.5 -23.5 q2.5 -12 -1.5 -20 q-4 -8 -11.5 1.5 q-7.5 9.5 -17.5 27.5 q-31 -5 -64.5 -13.5 q-33.5 -8.5 -45.5 -16 q-12 -7.5 -14 5.5 q-2 13 6.5 18 q8.5 5 21 16.5 q12.5 11.5 35.5 40.5 q23 29 33.5 46 q10.5 17 10 27 q-0.5 10 7.5 4 q8 -6 14 -13 q6 -7 -0.5 -12 q-6.5 -5 -24 -25 q-17.5 -20 -38.5 -43.5 q-21 -23.5 -27 -30.5 q-6 -7 1.5 -6.5 q7.5 0.5 35 3.5 q27.5 3 45.5 6 ZM111 179 q-1 11 7.5 7 q8.5 -4 13.5 -9.5 q5 -5.5 0 -10 q-5 -4.5 -20.5 -24 q-15.5 -19.5 -32 -33.5 q-16.5 -14 -29.5 -19.5 q-13 -5.5 3.5 8 q16.5 13.5 37.5 42 q21 28.5 20 39.5 Z" /><glyph glyph-name="" unicode="&#x4e49;" d="M130 64 q26 -27 40 -35 q14 -8 26.5 -13 q12.5 -5 30.5 -9 q18 -4 1 -7.5 q-17 -3.5 -37.5 -4 q-20.5 -0.5 -28.5 8 q-8 8.5 -18 21 q-10 12.5 -23 28.5 q-17 -18 -38 -29 q-21 -11 -41.5 -14 q-20.5 -3 -2.5 4 q18 7 38.5 20 q20.5 13 32.5 31 q-11 15 -22.5 28.5 q-11.5 13.5 -18 19 q-6.5 5.5 -17 9.5 q-10.5 4 4.5 5.5 q15 1.5 21.5 -6.5 q6.5 -8 15.5 -19 q9 -11 24 -26 q11 19 19.5 56.5 q8.5 37.5 4.5 46 q-4 8.5 4 6 q8 -2.5 17 -8.5 q9 -6 3.5 -12 q-5.5 -6 -9.5 -22.5 q-4 -16.5 -10.5 -37 q-6.5 -20.5 -16.5 -40.5 ZM101 139 q-10 13 -14 21 q-4 8 10.5 4.5 q14.5 -3.5 18 -14 q3.5 -10.5 -0.5 -17 q-4 -6.5 -14 5.5 Z" /><glyph glyph-name="" unicode="&#x4e4b;" d="M65 44 q61 -20 80.5 -24 q19.5 -4 38.5 -6 q19 -2 39 0 q20 2 20.5 -1.5 q0.5 -3.5 -19 -12 q-19.5 -8.5 -33 -11 q-13.5 -2.5 -25.5 4 q-12 6.5 -49 21 q-37 14.5 -50.5 18.5 q-13.5 4 -21 2 q-7.5 -2 -13.5 -6 q-6 -4 -13.5 5 q-7.5 9 2 10.5 q9.5 1.5 19.5 2 q10 0.5 20.5 5.5 q10.5 5 40.5 32 q30 27 52 52 q-30 -7 -55.5 -15 q-25.5 -8 -33.5 -11.5 q-8 -3.5 -20 5 q-12 8.5 -6 8.5 q7 0 23.5 2 q16.5 2 40.5 8.5 q24 6.5 39.5 11 q15.5 4.5 22 9 q6.5 4.5 20.5 -5.5 q14 -10 2 -14 q-12 -4 -25 -14.5 q-13 -10.5 -38 -32 q-25 -21.5 -58 -43.5 ZM102 174 q-8 9 -10 16 q-2 7 13.5 2 q15.5 -5 20.5 -14.5 q5 -9.5 2 -16.5 q-3 -7 -10.5 -1.5 q-7.5 5.5 -15.5 14.5 Z" /><glyph glyph-name="" unicode="&#x4e4f;" d="M69 40 q46 -12 73 -18.5 q27 -6.5 51 -6.5 q25 0 43 1 q18 1 -0.5 -8 q-18.5 -9 -31.5 -13.5 q-13 -4.5 -35 3.5 q-22 8 -49 17.5 q-27 9.5 -46 14.5 q-19 5 -29.5 -1 q-10.5 -6 -14.5 -3.5 q-4 2.5 -8.5 7.5 q-4.5 5 9.5 5.5 q14 0.5 25.5 4.5 q11.5 4 26 12 q14.5 8 31.5 21.5 q17 13.5 29 26 q12 12.5 6 12.5 q-5 0 -41 -11.5 q-36 -11.5 -42.5 -14 q-6.5 -2.5 -19.5 5 q-13 7.5 0 7.5 q13 0 40.5 5.5 q27.5 5.5 44 10 q16.5 4.5 22.5 8.5 q6 4 15 -0.5 q9 -4.5 15.5 -10 q6.5 -5.5 -1.5 -8.5 q-8 -3 -17 -9 q-9 -6 -32.5 -22.5 q-23.5 -16.5 -63.5 -35.5 ZM143 173 q-20 -7 -37.5 -14.5 q-17.5 -7.5 -30 -10.5 q-12.5 -3 -18.5 -3 q-5 0 11.5 7 q16.5 7 38 20 q21.5 13 20.5 20 q-1 7 8.5 2.5 q9.5 -4.5 16.5 -11 q7 -6.5 -9 -10.5 ZM92 137 q-10 11 3 10 q13 -1 20.5 -6 q7.5 -5 5.5 -14.5 q-2 -9.5 -10 -4.5 q-8 5 -19 15 Z" /><glyph glyph-name="" unicode="&#x4e50;" d="M89 156 q-7 -43 -8 -47.5 q-1 -4.5 7 -4 q8 0.5 37 5.5 q0 25 -6.5 33 q-6.5 8 3 6.5 q9.5 -1.5 17.5 -5 q8 -3.5 3.5 -9.5 q-4.5 -6 -4.5 -23 q29 4 43 7.5 q14 3.5 23 -3.5 q9 -7 -0.5 -8.5 q-9.5 -1.5 -21.5 -2 q-12 -0.5 -44 -5.5 q1 -76 1 -87 q0 -10 -4.5 -19 q-4.5 -9 -10.5 -12 q-6 -3 -9 5.5 q-3 8.5 -15 19 q-12 10.5 0 7 q12 -3.5 17.5 -3 q5.5 0.5 6.5 12 q1 11.5 1 76.5 q-44 -5 -53.5 -11.5 q-9.5 -6.5 -11 4.5 q-1.5 11 4.5 15 q6 4 9 24 q3 20 -1.5 29 q-4.5 9 1 8 q5.5 -1 14.5 -6 q63 21 61.5 29 q-1.5 8 9.5 4.5 q11 -3.5 21 -11.5 q10 -8 -0.5 -8.5 q-10.5 -0.5 -33.5 -5.5 q-23 -5 -57 -14 ZM162 60 q-6 8 17.5 1 q23.5 -7 33 -20 q9.5 -13 6 -23 q-3.5 -10 -16.5 2.5 q-13 12.5 -23 22.5 l-17 17 ZM66 58 q8 17 11 1 q3 -16 -11.5 -35.5 q-14.5 -19.5 -19.5 -8 q-5 11.5 1 17 q6 5.5 19 25.5 Z" /><glyph glyph-name="" unicode="&#x4e58;" d="M116 178 q14 -6 12 -9.5 q-2 -3.5 -3 -13.5 q49 8 58 10.5 q9 2.5 17 -1.5 q8 -4 9 -7.5 q1 -3.5 -19.5 -4.5 q-20.5 -1 -64.5 -6 q-1 -26 -1 -52 q38 -38 61.5 -51.5 q23.5 -13.5 45.5 -18 q22 -4.5 5.5 -8 q-16.5 -3.5 -33 -4 q-16.5 -0.5 -22.5 5.5 q-6 6 -20 23 q-14 17 -37 44 q0 -36 -0.5 -62 q-0.5 -26 -3.5 -42 q-3 -16 -10 -1.5 q-7 14.5 -3 25.5 q4 11 5 72 q-12 -20 -31 -38 q-19 -18 -42.5 -27.5 q-23.5 -9.5 -2.5 4.5 q21 14 40.5 34.5 q19.5 20.5 35.5 52.5 l0 41 q-49 -8 -58.5 -10.5 q-9.5 -2.5 -19.5 3.5 q-10 6 3 6.5 q13 0.5 33 3 q20 2.5 42 6.5 q-1 18 -5 22 q-13 -3 -23 -4 q-10 -1 2 4 q12 5 27.5 14 q15.5 9 17.5 15.5 q2 6.5 11 2.5 q9 -4 15 -9 q6 -5 -3 -6.5 q-9 -1.5 -38 -13.5 ZM152 115 q18 12 18 19 q0 8 7 4.5 q7 -3.5 10.5 -8 q3.5 -4.5 -2 -6 q-5.5 -1.5 -33.5 -14.5 q-1 -14 2 -17.5 q3 -3.5 11 -3.5 q8 0 14 1.5 q6 1.5 8 6 q2 4.5 4 14.5 q2 10 3.5 -3 q1.5 -13 5.5 -18 q4 -5 -8 -10 q-12 -5 -27 -3.5 q-15 1.5 -20 8 q-5 6.5 -4 17 q1 10.5 1 20.5 q0 11 -4.5 16 q-4.5 5 3.5 3.5 q8 -1.5 12 -4 q4 -2.5 2 -6 q-2 -3.5 -3 -16.5 ZM79 80 q-16 -8 -22.5 -13 q-6.5 -5 -15 2.5 q-8.5 7.5 1.5 7.5 q11 0 37 10 l0 19 q-13 -5 -20.5 -6 q-7.5 -1 -14 3 q-6.5 4 3 5.5 q9.5 1.5 17 3.5 q7.5 2 14.5 0 q0 11 -3.5 17.5 q-3.5 6.5 9 2.5 q12.5 -4 10.5 -8.5 q-2 -4.5 -3 -13 q-1 -8.5 -1 -20.5 q0 -12 -4 -19 q-4 -7 -6 -4.5 q-2 2.5 -3 13.5 Z" /><glyph glyph-name="" unicode="&#x4e5d;" d="M111 132 q26 8 32 13.5 q6 5.5 13.5 2 q7.5 -3.5 14.5 -9 q7 -5.5 -1.5 -11.5 q-8.5 -6 -14 -22.5 q-5.5 -16.5 -7 -42.5 q-1.5 -26 10 -34 q11.5 -8 31 -7.5 q19.5 0.5 28.5 5.5 q9 5 12.5 27.5 q3.5 22.5 4 1 q0.5 -21.5 4.5 -32.5 q4 -11 -7.5 -14.5 q-11.5 -3.5 -38 -4 q-26.5 -0.5 -39 7.5 q-12.5 8 -15.5 22.5 q-3 14.5 0 39.5 q3 25 6 42.5 q3 17.5 -0.5 18 q-3.5 0.5 -35.5 -10.5 q-6 -28 -17 -51 q-11 -23 -27 -39 q-16 -16 -34.5 -23.5 q-18.5 -7.5 3 8.5 q21.5 16 36.5 41 q15 25 23 58 q-23 -8 -32 -11.5 q-9 -3.5 -20.5 3 q-11.5 6.5 3 8 q14.5 1.5 23.5 3.5 q9 2 29 8 q8 46 2 56 q-6 10 3.5 8.5 q9.5 -1.5 18 -6 q8.5 -4.5 3.5 -10 q-5 -5.5 -12 -44.5 Z" /><glyph glyph-name="" unicode="&#x4e5f;" d="M123 126 q28 20 33 26 q5 6 12.5 4 q7.5 -2 14 -5.5 q6.5 -3.5 1 -9.5 q-5.5 -6 -7.5 -19.5 q-2 -13.5 -4 -29 q-2 -15.5 -11 -25 q-9 -9.5 -11.5 -1 q-2.5 8.5 -12.5 15.5 q-10 7 -2 5 q8 -2 14 -1.5 q6 0.5 9 13.5 q3 13 3.5 28 q0.5 15 -9.5 8.5 q-10 -6.5 -29 -19.5 q0 -30 -1 -43 q-1 -13 -5 -22 q-4 -9 -5.5 4.5 q-1.5 13.5 -2.5 50.5 q-15 -9 -30 -20 q0 -23 3 -37 q3 -14 11.5 -20.5 q8.5 -6.5 24 -10 q15.5 -3.5 55.5 -0.5 q40 3 46 12 q6 9 9 28 q3 19 4 -2.5 q1 -21.5 7.5 -30 q6.5 -8.5 -4.5 -13.5 q-11 -5 -27.5 -8.5 q-16.5 -3.5 -51.5 -3.5 q-35 0 -54.5 6.5 q-19.5 6.5 -27 21 q-7.5 14.5 -7.5 51.5 q-22 -15 -26.5 -19 q-4.5 -4 -16 0 q-11.5 4 -1.5 7 q10 3 44 23 q-1 31 -6.5 40 q-5.5 9 2.5 7.5 q8 -1.5 14.5 -4 q6.5 -2.5 4 -8.5 q-2.5 -6 -2.5 -28 q15 9 30 21 q0 46 -1.5 59.5 q-1.5 13.5 -6 20 q-4.5 6.5 3.5 5 q8 -1.5 16 -4.5 q8 -3 4 -10 q-4 -7 -2 -62 Z" /><glyph glyph-name="" unicode="&#x4e60;" d="M67 163 q-8 7 0 7 q8 0 33 2.5 q25 2.5 40.5 6 q15.5 3.5 24 6.5 q8.5 3 14 0.5 q5.5 -2.5 15.5 -9 q10 -6.5 6.5 -10 q-3.5 -3.5 -6 -13 q-2.5 -9.5 -3 -30 q-0.5 -20.5 -0.5 -45.5 q0 -24 -5 -46.5 q-5 -22.5 -19.5 -35 q-14.5 -12.5 -17 -1 q-2.5 11.5 -17 23.5 q-14.5 12 -6.5 9 q8 -3 19.5 -6 q11.5 -3 18 3 q6.5 6 10 30.5 q3.5 24.5 4 61.5 q0.5 37 -2 47.5 q-2.5 10.5 -37 4.5 q-34.5 -6 -48.5 -9.5 q-14 -3.5 -23 3.5 ZM48 44 q-7 9 4.5 9.5 q11.5 0.5 36 13 q24.5 12.5 48 24 q23.5 11.5 7.5 -1 q-16 -12.5 -39 -28 q-23 -15.5 -30 -23.5 q-7 -8 -13 -5 q-6 3 -14 11 ZM83 126 q-9 13 8.5 7.5 q17.5 -5.5 21.5 -13 q4 -7.5 1 -16 q-3 -8.5 -12.5 0.5 q-9.5 9 -18.5 21 Z" /><glyph glyph-name="" unicode="&#x4e61;" d="M169 83 q6 15 4.5 24.5 q-1.5 9.5 5.5 7 q7 -2.5 13 -7 q6 -4.5 3 -8.5 q-3 -4 -5 -8 q-2 -4 -11.5 -22.5 q-9.5 -18.5 -22 -32 q-12.5 -13.5 -26.5 -23.5 q-14 -10 -36.5 -20.5 q-22.5 -10.5 -42 -12.5 q-19.5 -2 -2.5 4.5 q17 6.5 34 15 q17 8.5 34 20.5 q17 12 28.5 25 q11.5 13 20.5 31 q-65 -10 -73 -13.5 q-8 -3.5 -14 -6.5 q-6 -3 -9 7 q-3 10 11.5 15 q14.5 5 53.5 45 q-42 -2 -53.5 -8 q-11.5 -6 -12.5 3.5 q-1 9.5 4 11.5 q5 2 18 14 q13 12 24.5 30 q11.5 18 11 25 q-0.5 7 5.5 5 q6 -2 13.5 -7.5 q7.5 -5.5 0.5 -10.5 q-7 -5 -15 -14 q-8 -9 -41 -43 l50 0 q8 7 17 18.5 q9 11.5 9 18.5 q0 7 7 3 q7 -4 12 -10.5 q5 -6.5 -5 -12.5 q-10 -6 -26 -22 q-16 -16 -55 -45 q16 0 70 4 Z" /><glyph glyph-name="" unicode="&#x4e66;" d="M116 148 q23 4 29.5 8.5 q6.5 4.5 13.5 1.5 q7 -3 13.5 -8 q6.5 -5 0 -11 q-6.5 -6 -12.5 -39 q23 3 29 6 q6 3 15.5 -3 q9.5 -6 12.5 -10 q3 -4 -1.5 -10.5 q-4.5 -6.5 -10.5 -31.5 q-6 -25 -18.5 -35.5 q-12.5 -10.5 -14.5 -1 q-2 9.5 -16 18 q-14 8.5 -3 6 q11 -2.5 19 -3 q8 -0.5 13 8.5 q5 9 8 28 q3 19 -6.5 20.5 q-9.5 1.5 -70.5 -7.5 l0 -58 q0 -21 -3 -35.5 q-3 -14.5 -6.5 -13.5 q-3.5 1 -4.5 16.5 q-1 15.5 -1 31.5 l0 56 q-41 -7 -50 -9.5 q-9 -2.5 -18.5 4.5 q-9.5 7 -1.5 7 q8 0 25 2 q17 2 45 6 l0 44 q-18 -3 -24.5 -5 q-6.5 -2 -16 4.5 q-9.5 6.5 1.5 6.5 q11 0 39 4 q0 44 -5.5 53 q-5.5 9 2 8 q7.5 -1 16.5 -5 q9 -4 6 -11 q-3 -7 -4 -43 ZM116 94 q8 1 30 4 q4 37 2.5 41.5 q-1.5 4.5 -10 3.5 q-8.5 -1 -22.5 -4 l0 -45 ZM178 176 q-9 12 5 9 q14 -3 22.5 -9.5 q8.5 -6.5 7 -18 q-1.5 -11.5 -13 -2 q-11.5 9.5 -21.5 20.5 Z" /><glyph glyph-name="" unicode="&#x4e70;" d="M137 83 q45 4 55.5 6 q10.5 2 17.5 1 q7 -1 14 -8.5 q7 -7.5 -15.5 -7 q-22.5 0.5 -74.5 -3.5 q-9 -35 -33.5 -55.5 q-24.5 -20.5 -52 -26 q-27.5 -5.5 -3 5.5 q24.5 11 43 27 q18.5 16 30.5 48 q-55 -7 -64 -10.5 q-9 -3.5 -21 5 q-12 8.5 2 8 q14 -0.5 34 1.5 q20 2 52 7 q4 16 6.5 39.5 q2.5 23.5 -1 32.5 q-3.5 9 5.5 5.5 q9 -3.5 16 -8.5 q7 -5 3 -10 q-4 -5 -6.5 -18.5 q-2.5 -13.5 -8.5 -38.5 ZM210 175 q8 -7 -3.5 -9 q-11.5 -2 -26.5 -13 q-15 -11 -9.5 -1 q5.5 10 8 16.5 q2.5 6.5 -6.5 6.5 q-9 0 -48 -6 q-39 -6 -48 -9.5 q-9 -3.5 -19.5 4.5 q-10.5 8 -3.5 8 q7 0 18 0.5 q11 0.5 39.5 4 q28.5 3.5 46 7 q17.5 3.5 22.5 6 q5 2.5 14 -2.5 q9 -5 17 -12 ZM149 29 q-19 16 -3 12.5 q16 -3.5 31.5 -11 q15.5 -7.5 24.5 -20 q9 -12.5 5.5 -20.5 q-3.5 -8 -21 7.5 q-17.5 15.5 -37.5 31.5 ZM62 112 q-4 7 9 4 q13 -3 19 -9 q6 -6 5 -14.5 q-1 -8.5 -7.5 -5 q-6.5 3.5 -13.5 11 q-7 7.5 -12 13.5 ZM75 143 q-5 7 7.5 4.5 q12.5 -2.5 18.5 -8.5 q6 -6 5 -15 q-1 -9 -7 -5.5 q-6 3.5 -12.5 10.5 q-6.5 7 -11.5 14 Z" /><glyph glyph-name="" unicode="&#x4e71;" d="M80 148 q7 -5 11.5 -9 q4.5 -4 2.5 -8.5 q-2 -4.5 -4 -20.5 q20 4 30 6.5 q10 2.5 16 -3 q6 -5.5 -6.5 -6.5 q-12.5 -1 -40.5 -7 q-4 -23 -6 -39 q16 3 20.5 6.5 q4.5 3.5 12 0.5 q7.5 -3 13 -8 q5.5 -5 -1 -11 q-6.5 -6 -11.5 -25 q11 -10 -2.5 -11 q-13.5 -1 -48.5 -6 q-5 -16 -8.5 -9.5 q-3.5 6.5 -7.5 25.5 q-4 19 -10.5 28 q-6.5 9 1.5 8 q8 -1 11.5 -2 q3.5 -1 21.5 2 q2 18 3 38 q-31 -6 -39.5 -9.5 q-8.5 -3.5 -19 5.5 q-10.5 9 3 8 q13.5 -1 55.5 7 q2 25 -4 37 q-10 -3 -18.5 -4 q-8.5 -1 3.5 5 q12 6 25.5 15 q13.5 9 14.5 14 q1 5 9 1.5 q8 -3.5 14.5 -8.5 q6.5 -5 -4.5 -7.5 q-11 -2.5 -36 -12.5 ZM166 187 q9 -6 4.5 -11 q-4.5 -5 -6.5 -43 q-2 -38 -2.5 -71 q-0.5 -33 7.5 -40.5 q8 -7.5 25.5 -8 q17.5 -0.5 25 4 q7.5 4.5 11 25 q3.5 20.5 4.5 3 q1 -17.5 6.5 -28 q5.5 -10.5 -13.5 -16 q-19 -5.5 -41 -2.5 q-22 3 -30 14.5 q-8 11.5 -7 40.5 q1 29 1 76 q0 48 -6.5 58 q-6.5 10 3.5 7.5 q10 -2.5 18 -8.5 ZM58 49 q2 -14 5 -34 q21 4 40 6 q2 13 2.5 23.5 q0.5 10.5 -4 11 q-4.5 0.5 -15.5 -2 q-11 -2.5 -28 -4.5 Z" /><glyph glyph-name="" unicode="&#x4e86;" d="M135 123 q13 -6 10 -10.5 q-3 -4.5 -4 -18.5 q-1 -14 0.5 -40 q1.5 -26 1 -38.5 q-0.5 -12.5 -10.5 -26.5 q-10 -14 -15.5 -3.5 q-5.5 10.5 -17.5 20.5 q-12 10 -0.5 6.5 q11.5 -3.5 18 -2.5 q6.5 1 8 9 q1.5 8 2 36.5 q0.5 28.5 -1.5 44.5 q-2 16 -7.5 22.5 q-5.5 6.5 -0.5 6 q5 -0.5 13 -2.5 q26 25 35.5 37 q9.5 12 -11 8.5 q-20.5 -3.5 -45.5 -8.5 q-25 -5 -32 -8 q-7 -3 -14.5 0 q-7.5 3 -13 8.5 q-5.5 5.5 6 5 q11.5 -0.5 37.5 2 q26 2.5 49 6.5 q23 4 30 8 q7 4 16 -2.5 q9 -6.5 13 -12.5 q4 -6 -4.5 -8 q-8.5 -2 -26 -13 q-17.5 -11 -35.5 -26 Z" /><glyph glyph-name="" unicode="&#x4e88;" d="M131 140 q7 -5 7.5 -10.5 q0.5 -5.5 -2.5 -12.5 q44 6 54.5 9 q10.5 3 21 -3.5 q10.5 -6.5 16.5 -13.5 q6 -7 -8 -10 q-14 -3 -27.5 -12 q-13.5 -9 -8.5 -0.5 q5 8.5 9.5 15.5 q4.5 7 1 10 q-3.5 3 -19 1.5 q-15.5 -1.5 -54.5 -6.5 q19 -7 17.5 -12.5 q-1.5 -5.5 -0.5 -29 q1 -23.5 0 -39.5 q-1 -16 -5.5 -28.5 q-4.5 -12.5 -13.5 -19 q-9 -6.5 -12.5 2 q-3.5 8.5 -14.5 16 q-11 7.5 -3 6 q8 -1.5 17.5 -2 q9.5 -0.5 13 8.5 q3.5 9 5 29.5 q1.5 20.5 -0.5 38.5 q-2 18 -11 29 q-46 -8 -56.5 -10.5 q-10.5 -2.5 -19.5 4.5 q-9 7 -4 7 q6 0 23 1.5 q17 1.5 38.5 4 q21.5 2.5 35.5 4.5 q-19 18 -25 25.5 q-6 7.5 2.5 6.5 q8.5 -1 19.5 -6 q22 24 25.5 32 q3.5 8 -12 5 q-15.5 -3 -27.5 -6.5 q-12 -3.5 -22.5 -5.5 q-10.5 -2 -19 3.5 q-8.5 5.5 -2.5 6 q6 0.5 19 1.5 q13 1 35 6 q22 5 29.5 8 q7.5 3 17 -3 q9.5 -6 14 -11 q4.5 -5 -4.5 -7 q-9 -2 -23 -13 q-14 -11 -25 -19 Z" /><glyph glyph-name="" unicode="&#x4e89;" d="M107 167 q21 1 32 7 q11 6 17 2.5 q6 -3.5 10.5 -7.5 q4.5 -4 -1 -6.5 q-5.5 -2.5 -13 -8 q-7.5 -5.5 -27.5 -26.5 q27 5 33.5 8 q6.5 3 13.5 0.5 q7 -2.5 12.5 -6.5 q5.5 -4 1.5 -8 q-4 -4 -7 -15 q21 3 33.5 6 q12.5 3 20 -4 q7.5 -7 -5.5 -8 q-13 -1 -50 -4 q-3 -12 -4 -25 q11 -9 2 -9.5 q-9 -0.5 -45 -4.5 q1 -34 0 -48 q-1 -14 -10 -26.5 q-9 -12.5 -13 -3 q-4 9.5 -16.5 17 q-12.5 7.5 -2 6 q10.5 -1.5 17.5 -1 q7 0.5 9 11.5 q2 11 2 42 q-26 -5 -35 -7 q-9 -2 -17.5 4 q-8.5 6 1.5 6 q10 0 51 6 q0 13 -1 23 q-28 -4 -41.5 -6.5 q-13.5 -2.5 -23.5 -4.5 q-10 -2 -20 4.5 q-10 6.5 -1 6.5 q10 0 25 1.5 q15 1.5 60 7.5 q-1 12 -4 20 q-24 -4 -30.5 -5 q-6.5 -1 -14 4.5 q-7.5 5.5 2 5 q9.5 -0.5 48.5 5.5 q6 7 14 21.5 q8 14.5 5.5 15 q-2.5 0.5 -15 -3 q-12.5 -3.5 -19.5 1.5 q-12 -14 -26 -22 q-14 -8 -3.5 3 q10.5 11 19.5 24 q9 13 12.5 20.5 q3.5 7.5 2 13.5 q-1.5 6 6.5 3 q8 -3 13 -7 q5 -4 -0.5 -8.5 q-5.5 -4.5 -18.5 -21.5 ZM129 67 q18 2 33 4 q1 13 2 24 q-24 -3 -35 -5 l0 -23 ZM128 99 q14 2 36 5 q1 10 0.5 15 q-0.5 5 -6.5 5 q-6 0 -36 -5 q8 -5 7 -8.5 q-1 -3.5 -1 -11.5 Z" /><glyph glyph-name="" unicode="&#x4e8b;" d="M131 180 q20 2 46 5 q26 3 32.5 4 q6.5 1 15.5 -8 q9 -9 -5.5 -8.5 q-14.5 0.5 -37 0 q-22.5 -0.5 -51.5 -2.5 l0 -19 q27 3 35 6.5 q8 3.5 12.5 1 q4.5 -2.5 10.5 -6.5 q6 -4 -0.5 -7.5 q-6.5 -3.5 -11.5 -13.5 q11 -9 -3 -9 q-14 0 -43 -3 l0 -17 q34 5 40 8.5 q6 3.5 12 1 q6 -2.5 12 -7 q6 -4.5 2 -7.5 q-4 -3 -8 -13 q9 1 19 3 q10 2 17 -5.5 q7 -7.5 -7 -7.5 q-13 0 -32 -1 q-3 -10 -4 -15 q11 -11 1 -11.5 q-10 -0.5 -52 -4.5 q0 -26 1 -39 q1 -13 -7.5 -23 q-8.5 -10 -13 -0.5 q-4.5 9.5 -18.5 18 q-14 8.5 2 4.5 q16 -4 19 -2.5 q3 1.5 3.5 4.5 q0.5 3 0.5 36 q-27 -3 -36.5 -5.5 q-9.5 -2.5 -19 3.5 q-9.5 6 3.5 6 q13 0 52 6 l0 16 q-47 -6 -58.5 -8.5 q-11.5 -2.5 -21 4 q-9.5 6.5 2.5 6 q12 -0.5 31.5 1.5 q19.5 2 45.5 6 l0 17 q-23 -4 -31 -6 q-8 -2 -16.5 3.5 q-8.5 5.5 3.5 5.5 q13 0 44 5 l0 17 q-12 -1 -35 -4 q-3 -10 -6 -5.5 q-3 4.5 -5.5 17.5 q-2.5 13 -7 19 q-4.5 6 0.5 6 q5 0 11.5 -2.5 q6.5 -2.5 41.5 2.5 l0 18 q-27 -3 -42 -5 q-15 -2 -25.5 -4 q-10.5 -2 -21 4.5 q-10.5 6.5 2.5 6.5 q13 0 33.5 2 q20.5 2 52.5 6 q0 16 -5.5 25 q-5.5 9 3.5 7 q9 -2 14.5 -5.5 q5.5 -3.5 3 -8 q-2.5 -4.5 -2.5 -16.5 ZM173 82 q1 7 1 12 q0 5 -7 4.5 q-7 -0.5 -36 -4.5 l0 -18 l42 6 ZM81 140 q1 -11 2 -20 q21 2 35 4 l0 19 q-22 -2 -37 -3 ZM131 126 q19 2 35 4 q2 9 2.5 14.5 q0.5 5.5 -7 4.5 q-7.5 -1 -30.5 -4 l0 -19 ZM131 51 q27 3 38 5 q2 6 3 16 q-21 -2 -41 -4 l0 -17 Z" /><glyph glyph-name="" unicode="&#x4e8c;" d="M27 31 q-16 10 2 9 q18 -1 82 6 q64 7 88.5 11.5 q24.5 4.5 36 -7 q11.5 -11.5 5 -13 q-6.5 -1.5 -27.5 1 q-21 2.5 -81 -3.5 q-60 -6 -74.5 -10 q-14.5 -4 -30.5 6 ZM93 148 q15 1 40 5 q25 4 33.5 6.5 q8.5 2.5 17.5 -2 q9 -4.5 6 -8.5 q-3 -4 -18.5 -5 q-15.5 -1 -38.5 -4 q-23 -3 -36 -7 q-13 -4 -25.5 5.5 q-12.5 9.5 -2.5 9 q10 -0.5 24 0.5 Z" /><glyph glyph-name="" unicode="&#x4e8e;" d="M124 165 q18 -8 14.5 -14.5 q-3.5 -6.5 -2.5 -29.5 q56 7 66 8.5 q10 1.5 21.5 -3.5 q11.5 -5 11.5 -11 q0 -6 -28 -3.5 q-28 2.5 -70 -1.5 q1 -33 2 -55 q1 -22 0 -38 q-1 -16 -10.5 -29 q-9.5 -13 -15.5 -3.5 q-6 9.5 -22 18.5 q-16 9 6.5 5.5 q22.5 -3.5 24.5 9 q2 12.5 2.5 33.5 q0.5 21 -1.5 58 q-38 -7 -52.5 -10 q-14.5 -3 -22 -4.5 q-7.5 -1.5 -17 5.5 q-9.5 7 -2.5 7 q8 0 33 3 q25 3 60 9 q0 25 -6 45 q-11 -2 -21.5 -4 q-10.5 -2 -19.5 4 q-9 6 4.5 7 q13.5 1 43.5 6.5 q30 5.5 37.5 8.5 q7.5 3 18 -3.5 q10.5 -6.5 -4.5 -9.5 q-15 -3 -50 -8 Z" /><glyph glyph-name="" unicode="&#x4e91;" d="M118 95 q5 -3 10 -6.5 q5 -3.5 -0.5 -7.5 q-5.5 -4 -21 -21 q-15.5 -17 -22.5 -25 q-7 -8 3 -7 q10 1 26.5 3.5 q16.5 2.5 51.5 7.5 q-10 15 -13 22.5 q-3 7.5 20.5 -8 q23.5 -15.5 27.5 -29 q4 -13.5 0.5 -20.5 q-3.5 -7 -10.5 1 q-7 8 -19 28 q-55 -11 -78 -18 q-23 -7 -30.5 -11.5 q-7.5 -4.5 -11 5.5 q-3.5 10 7 16.5 q10.5 6.5 30 33 q19.5 26.5 18.5 35.5 q-45 -7 -57 -10 q-12 -3 -22 3.5 q-10 6.5 -0.5 7 q9.5 0.5 39.5 4.5 q30 4 83 11.5 q53 7.5 63.5 8.5 q10.5 1 18.5 -4 q8 -5 6.5 -9.5 q-1.5 -4.5 -12.5 -3.5 q-11 1 -36 1 q-24 0 -72 -8 ZM143 154 q-31 -5 -41 -5 q-10 0 -21.5 4 q-11.5 4 11 7.5 q22.5 3.5 53 12 q30.5 8.5 35 -0.5 q4.5 -9 -36.5 -18 Z" /><glyph glyph-name="" unicode="&#x4e94;" d="M83 24 q5 12 20 62 l-23 -5 q-7 -1 -15.5 6 q-8.5 7 3.5 6.5 q12 -0.5 38 3.5 q11 46 8 56 q-17 -3 -23.5 -3.5 q-6.5 -0.5 -15 6.5 q-8.5 7 0.5 7 q9 0 26 2 q17 2 37.5 5.5 q20.5 3.5 33 6.5 q12.5 3 22.5 -3.5 q10 -6.5 -3.5 -9.5 q-13.5 -3 -32 -5 q-18.5 -2 -33.5 -5 q14 -8 9.5 -15 q-4.5 -7 -13.5 -40 q27 5 33.5 8.5 q6.5 3.5 13.5 1 q7 -2.5 14.5 -9 q7.5 -6.5 1.5 -12 q-6 -5.5 -12 -23.5 q-6 -18 -10 -34 q25 2 41.5 4 q16.5 2 27 -2 q10.5 -4 15.5 -12.5 q5 -8.5 -19.5 -5 q-24.5 3.5 -78 1 q-53.5 -2.5 -72.5 -6 q-19 -3.5 -32 -6 q-13 -2.5 -23 5.5 q-10 8 -2 8 q9 0 21.5 1 q12.5 1 41.5 6 ZM98 25 q13 1 51 4 q10 46 10 55 q0 10 -10 9 q-10 -1 -29 -4 q-7 -20 -22 -64 Z" /><glyph glyph-name="" unicode="&#x4e9b;" d="M101 133 q11 3 18.5 6 q7.5 3 12.5 -1.5 q5 -4.5 -8.5 -9 q-13.5 -4.5 -22.5 -2.5 l0 -43 q27 10 31 7 q4 -3 -12.5 -9.5 q-16.5 -6.5 -32.5 -13.5 q-16 -7 -28 -14 q-12 -7 -17.5 -6.5 q-5.5 0.5 -13 6.5 q-7.5 6 1 7.5 q8.5 1.5 28.5 8.5 q0 17 -3 34 q-3 17 -7.5 23 q-4.5 6 2 5.5 q6.5 -0.5 14 -4 q7.5 -3.5 6 -8.5 q-1.5 -5 0.5 -46 l21 7 q-1 48 -3.5 65 q-2.5 17 -7.5 25 q-5 8 3.5 7 q8.5 -1 15.5 -4.5 q7 -3.5 5 -7.5 q-2 -4 -3 -32 ZM153 125 q10 6 21.5 16.5 q11.5 10.5 12.5 17 q1 6.5 7.5 4 q6.5 -2.5 14 -9 q7.5 -6.5 -4 -9.5 q-11.5 -3 -51.5 -26 q-1 -18 2.5 -28.5 q3.5 -10.5 26.5 -11.5 q23 -1 30.5 3 q7.5 4 12.5 19.5 q5 15.5 5 -0.5 q0 -15 3.5 -23 q3.5 -8 -9.5 -12.5 q-13 -4.5 -36 -4 q-23 0.5 -33.5 9.5 q-10.5 9 -11 31 q-0.5 22 -0.5 49 q0 28 -5 37.5 q-5 9.5 1.5 8.5 q6.5 -1 13.5 -4.5 q7 -3.5 4 -10 q-3 -6.5 -4 -56.5 ZM49 -6 q-9 6 5 6 q15 0 44.5 3.5 q29.5 3.5 47 5.5 q17.5 2 36.5 5 q19 3 27.5 -4 q8.5 -7 6 -10 q-2.5 -3 -11.5 -1.5 q-9 1.5 -20 2 q-11 0.5 -25 -0.5 q-14 -1 -39 -4.5 q-25 -3.5 -37.5 -5.5 q-12.5 -2 -18.5 -2 q-6 0 -15 6 ZM95 34 q-9 3 -6 4 q3 1 18.5 4 q15.5 3 27.5 7 q12 4 22 -0.5 q10 -4.5 4 -7 q-6 -2.5 -19.5 -5 q-13.5 -2.5 -25 -4 q-11.5 -1.5 -21.5 1.5 Z" /><glyph glyph-name="" unicode="&#x4ea1;" d="M82 110 q13 -8 11 -15 q-2 -7 -3 -31 q-1 -24 -0.5 -34.5 q0.5 -10.5 14.5 -7.5 q40 6 63 11 q23 5 34 -4.5 q11 -9.5 -3 -11 q-14 -1.5 -21.5 0 q-7.5 1.5 -45.5 -3 q-38 -4.5 -45.5 -11 q-7.5 -6.5 -12 3 q-4.5 9.5 -1.5 15.5 q3 6 4 20.5 q1 14.5 0 36 q-1 21.5 -4 30.5 q-28 -5 -34 -6 q-6 -1 -16 7 q-10 8 1 8 q11 0 35 2 q24 2 79.5 9.5 q55.5 7.5 68 10 q12.5 2.5 20 0 q7.5 -2.5 13 -9 q5.5 -6.5 -2 -7.5 q-7.5 -1 -25.5 -1 q-18 0 -49.5 -3 q-31.5 -3 -79.5 -9 ZM114 187 q-10 14 11.5 7 q21.5 -7 26.5 -18 q5 -11 0.5 -18 q-4.5 -7 -16.5 4.5 q-12 11.5 -22 24.5 Z" /><glyph glyph-name="" unicode="&#x4ea6;" d="M150 142 q9 -8 6.5 -12.5 q-2.5 -4.5 -2.5 -36.5 q0 -31 2 -59 q2 -28 -6 -42 q-8 -14 -12.5 -3.5 q-4.5 10.5 -16 19.5 q-11.5 9 -4.5 7.5 q7 -1.5 14.5 -3.5 q7.5 -2 9 5.5 q1.5 7.5 1.5 30.5 q0 24 -1 55 q-1 31 -6 37 q-14 -1 -28 -3 q11 -7 8.5 -14 q-2.5 -7 -4 -28.5 q-1.5 -21.5 -9 -43 q-7.5 -21.5 -23.5 -36.5 q-16 -15 -32 -20 q-16 -5 -2 4.5 q14 9.5 27.5 25 q13.5 15.5 19.5 35.5 q6 20 7 44.5 q1 24.5 -3 31.5 q-18 -1 -27.5 -3 q-9.5 -2 -17.5 -3 q-8 -1 -18 6.5 q-10 7.5 1 7.5 q12 0 31 1 q19 1 60.5 5.5 q41.5 4.5 63.5 9 q22 4.5 32 -3 q10 -7.5 4.5 -9.5 q-5.5 -2 -27.5 -2 q-21 0 -48 -3 ZM176 94 q-6 10 3 7 q9 -3 19 -9 q10 -6 16.5 -17.5 q6.5 -11.5 1 -22.5 q-5.5 -11 -19.5 11 q-14 22 -20 31 ZM62 99 q6 13 7 2 q1 -11 -5 -27 q-6 -16 -16.5 -24.5 q-10.5 -8.5 -11 3.5 q-0.5 12 9.5 22.5 q10 10.5 16 23.5 ZM109 188 q-10 15 5 11.5 q15 -3.5 22.5 -12.5 q7.5 -9 4 -18.5 q-3.5 -9.5 -12 -2 q-8.5 7.5 -19.5 21.5 Z" /><glyph glyph-name="" unicode="&#x4ea7;" d="M157 155 q11 -4 15.5 -8.5 q4.5 -4.5 0 -8.5 q-4.5 -4 -22.5 -34 q28 5 41.5 8.5 q13.5 3.5 22 -2 q8.5 -5.5 2 -8.5 q-6.5 -3 -31.5 -6.5 q-25 -3.5 -57.5 -7 q-32.5 -3.5 -43.5 -1.5 q-4 -39 -17 -66.5 q-13 -27.5 -36.5 -40 q-23.5 -12.5 -3 5.5 q20.5 18 29.5 40 q9 22 11.5 43 q2.5 21 -2 28.5 q-4.5 7.5 2 5.5 q6.5 -2 11.5 -4.5 q5 -2.5 14 -2.5 q10 0 49 7 q6 17 9.5 29 q3.5 12 0.5 23 q-31 -6 -46 -8.5 q-15 -2.5 -25.5 3.5 q-10.5 6 3 6.5 q13.5 0.5 42 5.5 q28.5 5 44 9.5 q15.5 4.5 24 -1 q8.5 -5.5 -4.5 -9.5 q-13 -4 -32 -6 ZM125 184 q-5 5 -8.5 10.5 q-3.5 5.5 13 2.5 q16.5 -3 18.5 -11 q2 -8 -1.5 -12 q-3.5 -4 -10 1 q-6.5 5 -11.5 9 ZM100 130 q-5 13 6.5 8 q11.5 -5 15 -12.5 q3.5 -7.5 -0.5 -13.5 q-4 -6 -9.5 0 q-5.5 6 -11.5 18 Z" /><glyph glyph-name="" unicode="&#x4eab;" d="M136 74 q4 -5 6 -9 q45 4 63 7.5 q18 3.5 26.5 -3.5 q8.5 -7 5.5 -9.5 q-3 -2.5 -12.5 -1.5 q-9.5 1 -34.5 0 q-25 -1 -46 -3 q2 -16 1 -39.5 q-1 -23.5 -11.5 -35 q-10.5 -11.5 -14 -2 q-3.5 9.5 -16 16 q-12.5 6.5 2.5 4 q15 -2.5 18.5 -0.5 q3.5 2 5.5 17 q2 15 0 37 q-28 -3 -45 -6 q-17 -3 -28.5 -4.5 q-11.5 -1.5 -20.5 3.5 q-9 5 -7.5 7 q1.5 2 10.5 2 q10 0 39 3.5 q29 3.5 50 6.5 q-5 8 -12 13 q-7 5 0 4.5 q7 -0.5 15 -4.5 q8 8 13.5 14.5 q5.5 6.5 -14.5 2 q-20 -4.5 -32 -6.5 q-12 -2 -20 4 q-8 6 1 5 q9 -1 39.5 4 q30.5 5 37 8 q6.5 3 11.5 0.5 q5 -2.5 12 -9 q7 -6.5 -6 -8 q-13 -1.5 -37 -17.5 ZM165 127 q12 -9 -4 -9.5 q-16 -0.5 -57 -4.5 q-3 -8 -6 -2.5 q-3 5.5 -6.5 16 q-3.5 10.5 -8 15.5 q-4.5 5 0.5 5.5 q5 0.5 10.5 -1 q5.5 -1.5 28 2 q22.5 3.5 29 7.5 q6.5 4 13.5 0.5 q7 -3.5 12 -7 q5 -3.5 0 -7 q-5 -3.5 -12 -15.5 ZM83 166 q20 2 41.5 5 q21.5 3 38.5 5.5 q17 2.5 26.5 5 q9.5 2.5 17 -4 q7.5 -6.5 4 -8.5 q-3.5 -2 -21 -1.5 q-17.5 0.5 -45.5 -3 q-28 -3.5 -43.5 -5.5 q-15.5 -2 -25.5 -4.5 q-10 -2.5 -19.5 4 q-9.5 6.5 -1 6 q8.5 -0.5 28.5 1.5 ZM101 138 q2 -7 3 -19 q13 2 50 7 q1 6 1.5 13.5 q0.5 7.5 -7.5 6 q-8 -1.5 -47 -7.5 ZM126 190 q-4 5 -8 12 q-4 7 8.5 3.5 q12.5 -3.5 17.5 -10 q5 -6.5 1.5 -14 q-3.5 -7.5 -9.5 -2.5 l-10 11 Z" /><glyph glyph-name="" unicode="&#x4eac;" d="M164 95 q11 -10 -2 -11.5 q-13 -1.5 -35 -5.5 q8 -4 11.5 -7 q3.5 -3 0.5 -13 q-3 -10 -0.5 -31 q2.5 -21 -2 -30.5 q-4.5 -9.5 -10 -14.5 q-5.5 -5 -8.5 2.5 q-3 7.5 -17.5 16.5 q-14.5 9 1.5 5.5 q16 -3.5 20 0.5 q4 4 3.5 34 q-0.5 30 -6.5 36 q-12 0 -19 -2 q-3 -15 -7.5 -6.5 q-4.5 8.5 -9 24.5 q-4.5 16 -10 22.5 q-5.5 6.5 -0.5 7 q5 0.5 11 -1 q6 -1.5 32 3.5 q29 4 36 9.5 q7 5.5 15 2.5 q8 -3 14 -7.5 q6 -4.5 -1.5 -9.5 q-7.5 -5 -15.5 -25 ZM69 153 q22 2 63 8 q41 6 60.5 9 q19.5 3 29.5 -3 q10 -6 6 -10.5 q-4 -4.5 -25.5 -3 q-21.5 1.5 -56 -2 q-34.5 -3.5 -61 -7.5 q-26.5 -4 -37 -5.5 q-10.5 -1.5 -21.5 5.5 q-11 7 4.5 7.5 q15.5 0.5 37.5 1.5 ZM95 114 q2 -15 5 -31 q18 3 50 9 q2 14 3.5 22.5 q1.5 8.5 -2.5 9 q-4 0.5 -22.5 -3 q-18.5 -3.5 -33.5 -6.5 ZM185 54 q10 -4 19 -11 q9 -7 6.5 -20.5 q-2.5 -13.5 -13 -3.5 q-10.5 10 -25.5 26.5 q-15 16.5 -5.5 15 q9.5 -1.5 18.5 -6.5 ZM114 193 q-10 14 5.5 11 q15.5 -3 21.5 -10 q6 -7 4 -15.5 q-2 -8.5 -11 -4 q-9 4.5 -20 18.5 ZM76 60 q5 9 5.5 -8 q0.5 -17 -11.5 -32 q-12 -15 -14.5 -4 q-2.5 11 3 16.5 q5.5 5.5 9.5 12 q4 6.5 8 15.5 Z" /><glyph glyph-name="" unicode="&#x4eae;" d="M106 63 q-4 -35 -20 -52 q-16 -17 -38.5 -22.5 q-22.5 -5.5 2.5 7.5 q25 13 35.5 37 q10.5 24 5 32.5 q-5.5 8.5 0.5 8 q6 -0.5 10.5 -2.5 q4.5 -2 13.5 0 q9 2 12.5 6 q3.5 4 9 1.5 q5.5 -2.5 11 -5.5 q5.5 -3 -1.5 -7 q-7 -4 -9 -26 q-2 -22 6.5 -28 q8.5 -6 23.5 -7 q15 -1 27 2.5 q12 3.5 16 12 q4 8.5 7.5 18 q3.5 9.5 3 -5 q-0.5 -14.5 2.5 -23 q3 -8.5 -6 -14.5 q-9 -6 -33.5 -7 q-24.5 -1 -40 7 q-15.5 8 -15.5 30 q0 23 0.5 32.5 q0.5 9.5 -4.5 8.5 q-5 -1 -18 -3 ZM154 125 q8 -8 -7 -9 q-15 -1 -44 -6 q-4 -11 -7.5 -3.5 q-3.5 7.5 -7 17.5 q-3.5 10 -7.5 16.5 q-4 6.5 2 6 q6 -0.5 11 -1.5 q5 -1 24.5 2.5 q19.5 3.5 25 7.5 q5.5 4 11 1 q5.5 -3 12.5 -8 q7 -5 -0.5 -9 q-7.5 -4 -12.5 -14 ZM56 90 q38 5 81 11.5 q43 6.5 51.5 9.5 q8.5 3 18 -3 q9.5 -6 15.5 -12.5 q6 -6.5 -5 -8 q-11 -1.5 -24 -10 q-13 -8.5 -8.5 0.5 q4.5 9 7.5 15.5 q3 6.5 -14.5 4.5 q-17.5 -2 -47.5 -5.5 q-30 -3.5 -74 -9.5 q-3 -15 -10 -25 q-7 -10 -11.5 -1 q-4.5 9 0.5 15 q5 6 8 12 q3 6 5.5 15 q2.5 9 7.5 -9 ZM128 164 q-36 -5 -49 -8 q-13 -3 -23.5 3 q-10.5 6 4.5 6.5 q15 0.5 37.5 3.5 q22.5 3 48 6.5 q25.5 3.5 33.5 5.5 q8 2 15.5 -1.5 q7.5 -3.5 8 -7 q0.5 -3.5 -21.5 -4 q-22 -0.5 -53 -4.5 ZM102 116 q17 3 39 7 q2 9 3 15.5 q1 6.5 -9.5 5 q-10.5 -1.5 -35.5 -6.5 q2 -12 3 -21 ZM108 200 q-8 10 6.5 6.5 q14.5 -3.5 18.5 -11 q4 -7.5 0.5 -12.5 q-3.5 -5 -10.5 1 q-7 6 -15 16 Z" /><glyph glyph-name="" unicode="&#x4eba;" d="M116 119 q17 -21 43 -46.5 q26 -25.5 42.5 -35 q16.5 -9.5 36.5 -16 q20 -6.5 -1 -9 q-21 -2.5 -35.5 -1 q-14.5 1.5 -22 12 q-7.5 10.5 -28.5 38 q-21 27.5 -38 52.5 q-18 -31 -33 -51.5 q-15 -20.5 -29.5 -32.5 q-14.5 -12 -30.5 -18 q-16 -6 2 7.5 q18 13.5 36 35.5 q18 22 32 49.5 q14 27.5 20 45 q6 17.5 2.5 28.5 q-3.5 11 7.5 6 q11 -5 17 -10 q6 -5 1 -10.5 q-5 -5.5 -10.5 -18 q-5.5 -12.5 -11.5 -26.5 Z" /><glyph glyph-name="" unicode="&#x4ec0;" d="M172 114 q21 3 31 5 q10 2 18 3.5 q8 1.5 15.5 -6 q7.5 -7.5 -8.5 -7.5 q-16 0 -56 -4 q0 -66 -2 -97.5 q-2 -31.5 -7 -32 q-5 -0.5 -5 28.5 l0 98 q-29 -6 -37.5 -8 q-8.5 -2 -19.5 5 q-11 7 3 7 q14 0 54 7 q0 35 -0.5 50.5 q-0.5 15.5 -5 25 q-4.5 9.5 12 4.5 q16.5 -5 12 -14 q-4.5 -9 -4.5 -65 ZM73 122 q10 -11 9 -27.5 q-1 -16.5 -1 -54.5 q0 -38 -4.5 -44.5 q-4.5 -6.5 -9 5.5 q-4.5 12 -1.5 19 q3 7 5 47.5 q2 40.5 -4 47.5 q-23 -26 -40.5 -37 q-17.5 -11 -0.5 6 q17 17 35 45.5 q18 28.5 22 40 q4 11.5 3 19 q-1 7.5 12.5 -1 q13.5 -8.5 9 -12.5 q-4.5 -4 -15 -21 q-10.5 -17 -19.5 -32 Z" /><glyph glyph-name="" unicode="&#x4ec1;" d="M72 123 q12 -9 10.5 -17 q-1.5 -8 -1.5 -34 q0 -26 -0.5 -49 q-0.5 -23 -4.5 -32.5 q-4 -9.5 -9.5 2.5 q-5.5 12 -2.5 19 q3 7 5 31.5 q2 24.5 2 44.5 q0 21 -4 26 q-13 -17 -27.5 -30 q-14.5 -13 -25.5 -18.5 q-11 -5.5 2.5 8.5 q13.5 14 28.5 34 q15 20 26 44 q11 24 9.5 34.5 q-1.5 10.5 7.5 6 q9 -4.5 14 -10 q5 -5.5 0 -10 q-5 -4.5 -13 -19 q-8 -14.5 -17 -30.5 ZM92 40 q-7 6 -4 7 q3 1 8 1 q5 0 18 1 q13 1 29.5 4.5 q16.5 3.5 39.5 7.5 q23 4 32.5 2.5 q9.5 -1.5 16.5 -9 q7 -7.5 2 -8.5 q-5 -1 -17 0 q-12 1 -37.5 -0.5 q-25.5 -1.5 -43 -4 q-17.5 -2.5 -27 -4.5 q-9.5 -2 -17.5 3 ZM141 131 q17 4 32.5 8 q15.5 4 24 1.5 q8.5 -2.5 9 -7 q0.5 -4.5 -16.5 -8 q-17 -3.5 -29.5 -5.5 q-12.5 -2 -21.5 -2 q-9 0 -16.5 4 q-7.5 4 -3 5 q4.5 1 21.5 4 Z" /><glyph glyph-name="" unicode="&#x4ec5;" d="M164 72 q23 -27 38.5 -36 q15.5 -9 33 -13.5 q17.5 -4.5 3.5 -7 q-14 -2.5 -29.5 -3 q-15.5 -0.5 -22 7.5 q-6.5 8 -31.5 40 q-16 -20 -33 -30 q-17 -10 -32.5 -10.5 q-15.5 -0.5 -1.5 4.5 q14 5 30.5 17 q16.5 12 27.5 32 q-14 21 -23 32 q-9 11 -16 14 q-7 3 3.5 4.5 q10.5 1.5 15.5 -6 q5 -7.5 10.5 -14.5 q5.5 -7 16.5 -19 q12 24 17.5 44.5 q5.5 20.5 -1.5 20 q-7 -0.5 -19.5 -4.5 q-12.5 -4 -20.5 -6.5 q-8 -2.5 -16.5 3.5 q-8.5 6 2.5 6 q11 0 29.5 5 q18.5 5 25 10 q6.5 5 12.5 3 q6 -2 13 -7 q7 -5 1 -10 q-6 -5 -12.5 -27.5 q-6.5 -22.5 -20.5 -48.5 ZM66 125 q12 -9 9.5 -20 q-2.5 -11 -2 -45.5 q0.5 -34.5 -3.5 -53.5 q-4 -19 -10.5 -7.5 q-6.5 11.5 -3.5 22 q3 10.5 4.5 24.5 q1.5 14 1.5 40 q0 26 -2 34 q-21 -26 -37 -36.5 q-16 -10.5 -2.5 4.5 q13.5 15 30.5 40 q17 25 22.5 42 q5.5 17 4 24.5 q-1.5 7.5 6.5 4 q8 -3.5 13.5 -8.5 q5.5 -5 1.5 -8.5 q-4 -3.5 -12.5 -19.5 q-8.5 -16 -20.5 -36 Z" /><glyph glyph-name="" unicode="&#x4ec6;" d="M157 88 q1 59 0 79 q-1 20 -7.5 29 q-6.5 9 12.5 3 q19 -6 14 -13.5 q-5 -7.5 -6 -68.5 q13 -2 28.5 -7.5 q15.5 -5.5 28 -13.5 q12.5 -8 12 -19.5 q-0.5 -11.5 -25 5 q-24.5 16.5 -43.5 31.5 q1 -79 1 -96 q0 -17 -4 -30 q-4 -13 -10.5 2.5 q-6.5 15.5 -3 23.5 q3.5 8 3.5 75 ZM79 122 q14 -13 12.5 -19 q-1.5 -6 -1.5 -24 q0 -18 -0.5 -42.5 q-0.5 -24.5 -5 -37.5 q-4.5 -13 -9.5 -1 q-5 12 -2.5 21 q2.5 9 4.5 30.5 q2 21.5 1.5 41 q-0.5 19.5 -4.5 25.5 q-9 -10 -19 -20 q-10 -10 -25 -19 q-15 -9 -1 5 q14 14 30.5 38 q16.5 24 25 42 q8.5 18 6.5 26.5 q-2 8.5 12.5 -1 q14.5 -9.5 8.5 -14.5 q-6 -5 -13.5 -19 q-7.5 -14 -19.5 -32 Z" /><glyph glyph-name="" unicode="&#x4eca;" d="M129 182 q36 -38 60 -58.5 q24 -20.5 45 -27 q21 -6.5 6.5 -9 q-14.5 -2.5 -30.5 -2 q-16 0.5 -23.5 12 q-7.5 11.5 -24.5 34 q-17 22.5 -37 44.5 q-14 -26 -28 -45 q-14 -19 -34 -37 q-20 -18 -39 -27 q-19 -9 -2.5 4 q16.5 13 36 33 q19.5 20 38.5 52.5 q19 32.5 17 42 q-2 9.5 5.5 7 q7.5 -2.5 13.5 -7 q6 -4.5 3 -7 q-3 -2.5 -6 -9.5 ZM166 66 q6 -5 0.5 -8 q-5.5 -3 -10 -12 q-4.5 -9 -14.5 -31.5 q-10 -22.5 -17 -31 q-7 -8.5 -9 4 q-2 12.5 7 23.5 q9 11 16 31 q7 20 3.5 21.5 q-3.5 1.5 -25.5 -2 q-22 -3.5 -30.5 -7 q-8.5 -3.5 -19.5 4.5 q-11 8 2.5 7.5 q13.5 -0.5 37.5 3 q24 3.5 32.5 8 q8.5 4.5 15 -0.5 q6.5 -5 11.5 -11 ZM109 110 q-9 9 1 9 q11 0 19 -2.5 q8 -2.5 11 -9.5 q3 -7 1.5 -12.5 q-1.5 -5.5 -12.5 1 q-11 6.5 -20 14.5 Z" /><glyph glyph-name="" unicode="&#x4ece;" d="M154 102 q25 -38 41.5 -53 q16.5 -15 37 -23 q20.5 -8 5.5 -9 q-15 -1 -31 -0.5 q-16 0.5 -26.5 18.5 q-10.5 18 -28.5 58 q-15 -40 -31 -60.5 q-16 -20.5 -34.5 -30.5 q-18.5 -10 0 8 q18.5 18 32.5 45.5 q14 27.5 20.5 52.5 q6.5 25 9 43.5 q2.5 18.5 -1 29 q-3.5 10.5 5 8 q8.5 -2.5 15.5 -8 q7 -5.5 3.5 -11 q-3.5 -5.5 -7.5 -24.5 q-4 -19 -10 -43 ZM76 97 q25 -8 31.5 -20.5 q6.5 -12.5 2 -22.5 q-4.5 -10 -16 8 q-11.5 18 -19.5 31 q-10 -24 -24 -43 q-14 -19 -28 -27.5 q-14 -8.5 -1.5 6 q12.5 14.5 24.5 36 q12 21.5 19.5 42 q7.5 20.5 11.5 39.5 q4 19 1 27 q-3 8 5.5 5.5 q8.5 -2.5 15.5 -8 q7 -5.5 2 -12 q-5 -6.5 -11.5 -23.5 q-6.5 -17 -12.5 -38 Z" /><glyph glyph-name="" unicode="&#x4ed1;" d="M93 51 q18 11 33.5 23 q15.5 12 15.5 19 q0 7 8.5 3.5 q8.5 -3.5 16.5 -9.5 q8 -6 -1 -8 q-9 -2 -30.5 -13 q-21.5 -11 -42.5 -23 q-1 -19 2 -28 q3 -9 14 -11.5 q11 -2.5 27 -2 q16 0.5 29.5 4.5 q13.5 4 15.5 11 q2 7 4.5 22.5 q2.5 15.5 5 -4 q2.5 -19.5 8.5 -29 q6 -9.5 -18.5 -16 q-24.5 -6.5 -52.5 -5.5 q-28 1 -38.5 11.5 q-10.5 10.5 -9.5 47.5 q1 37 -5 46 q-6 9 3 7.5 q9 -1.5 16.5 -5 q7.5 -3.5 4 -9.5 q-3.5 -6 -5.5 -32 ZM120 173 q33 -29 52.5 -41 q19.5 -12 33.5 -18 q14 -6 31 -11.5 q17 -5.5 -5 -8 q-22 -2.5 -33 -2 q-11 0.5 -22 14 q-11 13.5 -60 61.5 q-27 -46 -48 -64.5 q-21 -18.5 -41.5 -27.5 q-20.5 -9 0 6.5 q20.5 15.5 38 37 q17.5 21.5 31 46 q13.5 24.5 12 33 q-1.5 8.5 6.5 5 q8 -3.5 13 -8 q5 -4.5 1.5 -8.5 q-3.5 -4 -9.5 -14 Z" /><glyph glyph-name="" unicode="&#x4ed3;" d="M92 92 q-2 -34 -2 -54 q0 -20 6 -28 q6 -8 24.5 -8.5 q18.5 -0.5 38.5 3 q20 3.5 23.5 14.5 q3.5 11 6 26 q2.5 15 4.5 -6 q2 -21 7.5 -27.5 q5.5 -6.5 -4.5 -13 q-10 -6.5 -24 -9 q-14 -2.5 -41 -3.5 q-27 -1 -40 9 q-13 10 -12.5 38 q0.5 28 -0.5 43 q-1 15 -5 23.5 q-4 8.5 2 7.5 q6 -1 11.5 -4 q5.5 -3 20.5 0.5 q15 3.5 22 8.5 q7 5 13.5 3 q6.5 -2 13 -5.5 q6.5 -3.5 1.5 -9 q-5 -5.5 -6 -25 q-1 -19.5 -5 -27 q-4 -7.5 -10.5 -12.5 q-6.5 -5 -9 2 q-2.5 7 -13 16 q-10.5 9 3.5 6 q14 -3 16.5 5.5 q2.5 8.5 2.5 21.5 q0 13 -6 12.5 q-6 -0.5 -38 -7.5 ZM119 170 q16 -14 39 -32 q23 -18 40 -26 q17 -8 37 -13 q20 -5 -2 -7.5 q-22 -2.5 -35.5 -2 q-13.5 0.5 -20.5 10 q-7 9.5 -21 23.5 l-40 42 q-21 -32 -42.5 -56 q-21.5 -24 -45 -36.5 q-23.5 -12.5 -3.5 4 q20 16.5 37.5 38.5 q17.5 22 31.5 45.5 q14 23.5 12.5 31.5 q-1.5 8 5.5 6 q7 -2 13.5 -6.5 q6.5 -4.5 2.5 -8.5 q-4 -4 -9 -13 Z" /><glyph glyph-name="" unicode="&#x4ed6;" d="M155 125 q24 16 27 20.5 q3 4.5 18 0 q15 -4.5 11.5 -9 q-3.5 -4.5 -6.5 -12.5 q-3 -8 -7 -26 q-4 -18 -12 -27 q-8 -9 -9.5 -1 q-1.5 8 -11 15 q-9.5 7 1.5 4.5 q11 -2.5 15 7.5 q4 10 5.5 22.5 q1.5 12.5 -2 13 q-3.5 0.5 -11.5 -4 q-8 -4.5 -18 -11.5 q1 -37 -2 -53.5 q-3 -16.5 -8 -6 q-5 10.5 -3 20 q2 9.5 3 33.5 q-13 -8 -25 -15 q-3 -48 7.5 -60 q10.5 -12 41 -9.5 q30.5 2.5 43 7.5 q12.5 5 17 27 q4.5 22 4 3.5 q-0.5 -18.5 6.5 -32.5 q1 -4 -7.5 -9.5 q-8.5 -5.5 -26 -8.5 q-17.5 -3 -39.5 -3.5 q-22 -0.5 -35.5 5.5 q-13.5 6 -18 20 q-4.5 14 -3.5 55 q-11 -6 -14 -9.5 q-3 -3.5 -11 1.5 q-8 5 -1 6.5 q7 1.5 26 10.5 q0 14 -1.5 21.5 q-1.5 7.5 -4.5 14 q-3 6.5 0 7.5 q3 1 12.5 -4 q9.5 -5 7 -9.5 q-2.5 -4.5 -2.5 -23.5 q12 6 25 14 q0 39 -1.5 50.5 q-1.5 11.5 -6 19.5 q-4.5 8 2 7.5 q6.5 -0.5 14 -5 q7.5 -4.5 5 -9.5 q-2.5 -5 -4.5 -58 ZM63 124 q16 -9 14 -17.5 q-2 -8.5 -2.5 -28 q-0.5 -19.5 -1 -49 q-0.5 -29.5 -4.5 -34.5 q-4 -5 -9 7 q-5 12 -2 22 q3 10 5 30.5 q2 20.5 1 39.5 q-1 19 -5 25 q-9 -16 -19.5 -27 q-10.5 -11 -19.5 -17 q-9 -6 -2.5 2 q6.5 8 16 22.5 q9.5 14.5 21.5 38 q12 23.5 13.5 33.5 q1.5 10 -0.5 16 q-2 6 3.5 4.5 q5.5 -1.5 14 -7.5 q8.5 -6 6 -9 q-2.5 -3 -5.5 -8 q-3 -5 -23 -43 Z" /><glyph glyph-name="" unicode="&#x4ee3;" d="M153 122 q19 10 27 14 q8 4 15 0.5 q7 -3.5 -5 -11 q-12 -7.5 -33 -17.5 q9 -26 22 -46.5 q13 -20.5 22 -29.5 q9 -9 15.5 -11.5 q6.5 -2.5 9 6.5 q2.5 9 6 19 q3.5 10 2.5 -11.5 q-1 -21.5 4.5 -34.5 q5.5 -13 -16.5 -3.5 q-22 9.5 -42.5 37 q-20.5 27.5 -33.5 70.5 q-20 -9 -31 -11 q-11 -2 -17 -0.5 q-6 1.5 5.5 6 q11.5 4.5 38.5 17.5 q-8 30 -12 47 q-4 17 -10 23.5 q-6 6.5 4 5.5 q10 -1 17.5 -3.5 q7.5 -2.5 4 -9.5 q-3.5 -7 7.5 -57 ZM72 117 q17 -7 14.5 -14 q-2.5 -7 -2.5 -15 l0 -27 q0 -19 -0.5 -38.5 q-0.5 -19.5 -4.5 -26.5 q-4 -7 -8.5 6 q-4.5 13 -1.5 23 q3 10 3.5 31.5 q0.5 21.5 0.5 35.5 q0 15 -4 20 q-13 -19 -22.5 -30 q-9.5 -11 -21.5 -17.5 q-12 -6.5 0.5 7 q12.5 13.5 23 30.5 q10.5 17 18 31.5 q7.5 14.5 11.5 26.5 q4 12 2.5 21 q-1.5 9 15.5 -2 q11 -6 6 -12 q-5 -6 -12 -17 q-7 -11 -18 -33 ZM171 190 q14 0 22 -4.5 q8 -4.5 8.5 -14.5 q0.5 -10 -8 -7 q-8.5 3 -22 15 q-13.5 12 -0.5 11 Z" /><glyph glyph-name="" unicode="&#x4ee5;" d="M181 70 q30 -17 39.5 -25 q9.5 -8 11 -18 q1.5 -10 -2 -16 q-3.5 -6 -10.5 4 q-7 10 -13.5 19.5 q-6.5 9.5 -26.5 31.5 q-20 -28 -38.5 -41.5 q-18.5 -13.5 -33 -17 q-14.5 -3.5 -14 -1.5 q0.5 2 18 12 q17.5 10 36.5 31.5 q19 21.5 29.5 45.5 q10.5 24 14 44.5 q3.5 20.5 0.5 29.5 q-3 9 0 9 q4 0 14 -5.5 q10 -5.5 9.5 -9 q-0.5 -3.5 -3.5 -9.5 q-3 -6 -10 -33.5 q-7 -27.5 -21 -50.5 ZM67 145 q8 -4 5 -11 q-3 -7 -3.5 -33 q-0.5 -26 -0.5 -33 q0 -7 9 0 q9 7 29.5 25 q20.5 18 23 16.5 q2.5 -1.5 -12 -17.5 q-14.5 -16 -28.5 -30.5 q-14 -14.5 -21.5 -27 q-7.5 -12.5 -11.5 -12.5 q-4 0 -8.5 7 q-4.5 7 0.5 14 q5 7 8 21.5 q3 14.5 1 43 q-2 28.5 -7 36 q-5 7.5 2.5 6.5 q7.5 -1 14.5 -5 ZM122 147 q-8 7 -11 12 q-3 5 12 3 q15 -2 21 -9 q6 -7 4.5 -16 q-1.5 -9 -10 -3 q-8.5 6 -16.5 13 Z" /><glyph glyph-name="" unicode="&#x4eea;" d="M166 58 q12 -13 29.5 -25 q17.5 -12 37.5 -17.5 q20 -5.5 7.5 -7.5 q-12.5 -2 -29 -1.5 q-16.5 0.5 -23 6 q-6.5 5.5 -30.5 34.5 q-15 -14 -33 -21.5 q-18 -7.5 -30 -8 q-12 -0.5 -0.5 4 q11.5 4.5 26.5 14 q15 9.5 28 23.5 q-11 15 -24 34 q-13 19 -20.5 23 q-7.5 4 4 4.5 q11.5 0.5 20 -13.5 q8.5 -14 27.5 -37 q5 10 12 29.5 q7 19.5 9.5 41 q2.5 21.5 -1 31.5 q-3.5 10 12 2.5 q15.5 -7.5 11.5 -13 q-4 -5.5 -7 -20 q-3 -14.5 -8 -37 q-5 -22.5 -19 -46.5 ZM64 125 q16 -9 14 -17 q-2 -8 -2.5 -16 q-0.5 -8 -0.5 -22 l0 -42 q0 -27 -4 -34 q-4 -7 -9.5 4.5 q-5.5 11.5 -1.5 24 q4 12.5 4.5 39.5 q0.5 27 0.5 39 q0 13 -5 18 q-8 -13 -20 -28 q-12 -15 -27 -25 q-15 -10 -2 4.5 q13 14.5 25 32.5 q12 18 25.5 49.5 q13.5 31.5 11 40 q-2.5 8.5 4 6.5 q6.5 -2 14.5 -8.5 q8 -6.5 4.5 -10 q-3.5 -3.5 -9.5 -13.5 q-6 -10 -22 -42 ZM125 158 q-4 7 -7.5 13.5 q-3.5 6.5 12 0 q15.5 -6.5 19 -15.5 q3.5 -9 -1 -15 q-4.5 -6 -11.5 2 q-7 8 -11 15 Z" /><glyph glyph-name="" unicode="&#x4eec;" d="M221 159 q7 -4 3.5 -11.5 q-3.5 -7.5 -3.5 -30.5 q0 -22 3.5 -63.5 q3.5 -41.5 -6 -58.5 q-9.5 -17 -15.5 -5.5 q-6 11.5 -20.5 19 q-14.5 7.5 0 6 q14.5 -1.5 20.5 -0.5 q6 1 6 39 q0 39 -2.5 65.5 q-2.5 26.5 -6 32 q-3.5 5.5 -11.5 3 q-8 -2.5 -16.5 -6 q-8.5 -3.5 -17.5 3 q-9 6.5 3 6.5 q12 0 22.5 3.5 q10.5 3.5 14.5 6 q4 2.5 12 0 q8 -2.5 14 -7.5 ZM65 126 q13 -10 10 -22 q-3 -12 -3 -53 q0 -40 -5.5 -53 q-5.5 -13 -10.5 0.5 q-5 13.5 -2 21.5 q3 8 5 31 q2 23 2 43 q0 20 -3 22 q-18 -22 -35.5 -34 q-17.5 -12 -3.5 3.5 q14 15.5 27.5 37 q13.5 21.5 22 42 q8.5 20.5 7 28.5 q-1.5 8 7 4 q8.5 -4 14 -10 q5.5 -6 0.5 -9.5 q-5 -3.5 -11 -14 q-6 -10.5 -21 -37.5 ZM118 139 q8 -4 4 -11 q-4 -7 -3.5 -46 q0.5 -39 -2 -64.5 q-2.5 -25.5 -9.5 -11.5 q-7 14 -3.5 28 q3.5 14 3.5 55 q0 42 -6.5 50 q-6.5 8 2 6.5 q8.5 -1.5 15.5 -6.5 ZM120 173 q12 -1 18.5 -6 q6.5 -5 4 -13 q-2.5 -8 -10 -3.5 q-7.5 4.5 -15.5 14.5 q-8 10 3 8 Z" /><glyph glyph-name="" unicode="&#x4ef0;" d="M172 78 q0 -33 -0.5 -50.5 q-0.5 -17.5 -1 -27.5 q-0.5 -10 -4 -21 q-3.5 -11 -6 -4.5 q-2.5 6.5 -2.5 47.5 l0 73 q0 31 -1.5 37 q-1.5 6 -3.5 12 q-2 6 7.5 3 q9.5 -3 21.5 1 q12 4 18 8 q6 4 14.5 -0.5 q8.5 -4.5 13.5 -7.5 q5 -3 5.5 -6 q0.5 -3 -4 -11.5 q-4.5 -8.5 -6 -20 q-1.5 -11.5 -2.5 -24.5 q-1 -13 -10 -25.5 q-9 -12.5 -12.5 -3 q-3.5 9.5 -13.5 16 q-10 6.5 -1 5.5 q9 -1 13 -1 q5 0 8 11.5 q3 11.5 4 33 q1 21.5 -7 21.5 q-7 0 -30 -7 l0 -59 ZM65 126 q9 -8 8.5 -27.5 q-0.5 -19.5 -1 -55.5 q-0.5 -36 -4 -45.5 q-3.5 -9.5 -9 3.5 q-5.5 13 -2 23.5 q3.5 10.5 4 35.5 q0.5 25 0.5 36 q0 11 -2 23 q-7 -8 -16.5 -18.5 q-9.5 -10.5 -20 -17 q-10.5 -6.5 -5.5 0 q5 6.5 13 16 q8 9.5 16.5 24 q8.5 14.5 15 28 q6.5 13.5 9 23 q2.5 9.5 1.5 15.5 q-1 6 2.5 6.5 q3.5 0.5 13 -7.5 q9.5 -8 6.5 -11.5 q-3 -3.5 -7 -9 q-4 -5.5 -10 -17 q-6 -11.5 -13 -25.5 ZM111 141 q4 -9 3.5 -24.5 q-0.5 -15.5 -1 -27.5 q-0.5 -12 7.5 -5.5 q8 6.5 19.5 13.5 q11.5 7 -6.5 -12.5 q-18 -19.5 -23.5 -29.5 q-5.5 -10 -10 -1 q-4.5 9 -3.5 12 q1 3 3 11.5 q2 8.5 2.5 29 q0.5 20.5 -8 31.5 q-8.5 11 13.5 8 q26 22 26 31 q0 10 15.5 0 q15.5 -10 3.5 -13.5 q-12 -3.5 -42 -22.5 Z" /><glyph glyph-name="" unicode="&#x4ef6;" d="M123 126 q7 0 32 6 q0 15 -0.5 29 q-0.5 14 -2.5 21 q-2 7 -4.5 12 q-2.5 5 5 3.5 q7.5 -1.5 15 -5 q7.5 -3.5 4 -9.5 q-3.5 -6 -3.5 -48 q14 4 21.5 6 q7.5 2 13.5 -3 q6 -5 -5 -8.5 q-11 -3.5 -30 -7.5 l0 -31 q35 5 49 8 q14 3 21 -2.5 q7 -5.5 6 -8 q-1 -2.5 -12 -2.5 q-11 0 -28 -1.5 q-17 -1.5 -36 -4.5 q0 -51 -1.5 -77 q-1.5 -26 -5.5 -27.5 q-4 -1.5 -5 20.5 q-1 22 -1 82 q-39 -7 -48.5 -9 q-9.5 -2 -19.5 4.5 q-10 6.5 4.5 7 q14.5 0.5 63.5 8.5 l0 31 l-18 -3 q-10 -1 -18 4 q-12 -16 -21.5 -22 q-9.5 -6 -2.5 3 q7 9 13.5 24.5 q6.5 15.5 5 23 q-1.5 7.5 5 5.5 q6.5 -2 12 -7 q5.5 -5 0.5 -10 q-5 -5 -8 -12 ZM65 119 q3 -3 7.5 -10 q4.5 -7 3 -33.5 q-1.5 -26.5 -1.5 -46.5 q0 -20 -4 -29.5 q-4 -9.5 -9 3 q-5 12.5 -2 22 q3 9.5 5 42 q2 32.5 -4 46.5 q-8 -11 -18 -21 q-10 -10 -21.5 -17.5 q-11.5 -7.5 2 7.5 q13.5 15 23.5 30.5 q10 15.5 21.5 39.5 q11.5 24 10 33.5 q-1.5 9.5 5 6 q6.5 -3.5 13 -8.5 q6.5 -5 2.5 -9 q-4 -4 -14.5 -22.5 q-10.5 -18.5 -18.5 -32.5 Z" /><glyph glyph-name="" unicode="&#x4ef7;" d="M62 125 q14 -13 11.5 -19.5 q-2.5 -6.5 -3 -54.5 q-0.5 -48 -5 -56.5 q-4.5 -8.5 -10 3.5 q-5.5 12 -2 20 q3.5 8 4.5 33 q1 25 1 40 q0 15 -3 26 q-18 -23 -34.5 -33 q-16.5 -10 -3.5 3.5 q13 13.5 25.5 32 q12.5 18.5 22 40.5 q9.5 22 8 29.5 q-1.5 7.5 5.5 4.5 q7 -3 13 -8 q6 -5 1 -9.5 q-5 -4.5 -13.5 -21 q-8.5 -16.5 -17.5 -30.5 ZM154 179 q24 -26 36 -37 q12 -11 25 -19 q13 -8 25 -12 q12 -4 4 -6.5 q-8 -2.5 -24.5 -1.5 q-16.5 1 -24.5 11 q-8 10 -16 22 q-8 12 -28 37 q-18 -35 -33 -54.5 q-15 -19.5 -31 -28 q-16 -8.5 -0.5 7 q15.5 15.5 29.5 39 q14 23.5 19 39.5 q5 16 3 23 q-2 7 5.5 5 q7.5 -2 14 -6 q6.5 -4 3 -8 q-3.5 -4 -6.5 -11 ZM172 115 q11 -5 8.5 -13 q-2.5 -8 -2 -45 q0.5 -37 -0.5 -52.5 q-1 -15.5 -4.5 -20.5 q-3.5 -5 -8.5 6 q-5 11 -2 24.5 q3 13.5 2.5 52 q-0.5 38.5 -7 47.5 q-6.5 9 13.5 1 ZM129 107 q12 -4 9.5 -8.5 q-2.5 -4.5 -4 -26 q-1.5 -21.5 -10.5 -39 q-9 -17.5 -25 -25.5 q-16 -8 -4 4 q12 12 18.5 26 q6.5 14 8 37 q1.5 23 -4 30.5 q-5.5 7.5 11.5 1.5 Z" /><glyph glyph-name="" unicode="&#x4efb;" d="M153 145 q17 -8 14 -15 q-3 -7 -4 -38 q34 5 49.5 8.5 q15.5 3.5 25 -3.5 q9.5 -7 5 -9.5 q-4.5 -2.5 -14 -2 q-9.5 0.5 -27.5 -1 q-18 -1.5 -38 -3.5 q-1 -30 -1 -57 q17 3 29.5 4.5 q12.5 1.5 21.5 -3.5 q9 -5 7 -8.5 q-2 -3.5 -10.5 -3 q-8.5 0.5 -23.5 0.5 q-14 0 -33 -2.5 q-19 -2.5 -33.5 -5 q-14.5 -2.5 -19 -1 q-4.5 1.5 -11 6 q-6.5 4.5 3.5 4.5 q11 0 25 1.5 q14 1.5 31 4.5 l0 55 q-42 -7 -49 -8.5 q-7 -1.5 -17.5 5.5 q-10.5 7 -2.5 7 q9 0 28.5 2 q19.5 2 40.5 6 q0 22 -1 35.5 q-1 13.5 -5 16.5 q-18 -6 -31 -8.5 q-13 -2.5 3 5.5 q16 8 32 18.5 q16 10.5 19.5 14.5 q3.5 4 3.5 10 q0 6 10.5 0.5 q10.5 -5.5 16.5 -12 q6 -6.5 -1 -7.5 q-7 -1 -19 -6.5 q-12 -5.5 -24 -10.5 ZM59 123 q7 -4 11 -8 q4 -4 2.5 -14.5 q-1.5 -10.5 -1.5 -44.5 q0 -33 -0.5 -46 q-0.5 -13 -3.5 -20 q-3 -7 -9.5 6.5 q-6.5 13.5 -3 23 q3.5 9.5 5.5 33.5 q2 24 0.5 42 q-1.5 18 -5.5 22 q-8 -11 -18.5 -22 q-10.5 -11 -22.5 -19 q-12 -8 -0.5 5.5 q11.5 13.5 22 28.5 q10.5 15 19 31 q8.5 16 13 28.5 q4.5 12.5 2.5 20 q-2 7.5 13 -2.5 q15 -10 9 -14 q-6 -4 -12 -15 q-6 -11 -21 -35 Z" /><glyph glyph-name="" unicode="&#x4efd;" d="M149 87 q10 -6 12 -9 q2 -3 -2.5 -7 q-4.5 -4 -14.5 -20.5 q-10 -16.5 -25 -30.5 q-15 -14 -29.5 -20.5 q-14.5 -6.5 -2 4 q12.5 10.5 26 25 q13.5 14.5 21 30.5 q7.5 16 5.5 25 q-9 -3 -14 -4.5 q-5 -1.5 -12 3.5 q-7 5 1 5 q8 0 33 6.5 q25 6.5 29.5 10 q4.5 3.5 12 0 q7.5 -3.5 14.5 -9 q7 -5.5 3 -10 q-4 -4.5 -9.5 -31 q-5.5 -26.5 -10 -36.5 q-4.5 -10 -9 -16.5 q-4.5 -6.5 -13.5 -11 q-9 -4.5 -9.5 4.5 q-0.5 9 -9 17.5 q-8.5 8.5 -4 6.5 q4.5 -2 16 -5.5 q11.5 -3.5 19 21.5 q7.5 25 7.5 42 q0 17 -7.5 16 q-7.5 -1 -28.5 -6 ZM64 120 q12 -12 11 -28 q-1 -16 -2 -59 q-2 -27 -5 -35 q-3 -8 -9 5.5 q-6 13.5 -2 23.5 q4 10 5 31 q1 21 1 33 q0 12 -3 22 q-8 -9 -20 -21 q-12 -12 -25.5 -19 q-13.5 -7 3 9 q16.5 16 30.5 38 q14 22 20 39 q6 17 4.5 26 q-1.5 9 6.5 5.5 q8 -3.5 12 -6.5 q4 -3 5.5 -6 q1.5 -3 -2.5 -6.5 q-4 -3.5 -30 -51.5 ZM148 197 q10 -2 11.5 -7 q1.5 -5 12.5 -21 q11 -16 26 -31 q15 -15 33 -22.5 q18 -7.5 17 -9 q-1 -1.5 -15.5 -2.5 q-14.5 -1 -25 2 q-10.5 3 -18 16.5 q-7.5 13.5 -23 39 q-15.5 25.5 -23.5 30.5 q-8 5 5 5 ZM139 148 q6 -5 1.5 -8 q-4.5 -3 -16.5 -22 q-12 -19 -23 -29 q-11 -10 -18.5 -13 q-7.5 -3 -2.5 2 q5 5 15.5 18.5 q10.5 13.5 18 30.5 q7.5 17 6.5 25 q-1 8 6 4.5 q7 -3.5 13 -8.5 Z" /><glyph glyph-name="" unicode="&#x4f0d;" d="M114 25 q12 41 15 56 q-7 -1 -12.5 -3 q-5.5 -2 -13 4 q-7.5 6 1.5 6 q9 0 27 4 q3 8 6.5 26 q3.5 18 1.5 25 q-3 0 -9.5 0.5 q-6.5 0.5 -13 4.5 q-6.5 4 2 4.5 q8.5 0.5 31 5.5 q22.5 5 30.5 8 q8 3 18 -1.5 q10 -4.5 -1 -9.5 q-11 -5 -46 -11 q11 -8 6.5 -16 q-4.5 -8 -11.5 -34 q19 3 26 7.5 q7 4.5 17.5 1 q10.5 -3.5 15 -8 q4.5 -4.5 -1.5 -10.5 q-6 -6 -23 -50 q25 3 40 4 q15 1 22 -9 q7 -10 -12 -8 q-19 2 -46 1 q-27 -1 -53 -4.5 q-26 -3.5 -37.5 -6.5 q-11.5 -3 -21 3 q-9.5 6 -0.5 6 q10 0 41 5 ZM58 124 q13 -12 11.5 -21.5 q-1.5 -9.5 -2 -55.5 q-0.5 -46 -4.5 -51.5 q-4 -5.5 -9 7 q-5 12.5 -2 24.5 q3 12 4 33 q1 21 1 35 q0 14 -3 23 q-8 -10 -16.5 -19.5 q-8.5 -9.5 -20.5 -18 q-12 -8.5 1 7.5 q13 16 22 31.5 q9 15.5 16 29 q7 13.5 10.5 23.5 q3.5 10 1.5 15 q-2 5 1.5 5.5 q3.5 0.5 13 -6 q9.5 -6.5 7 -10 q-2.5 -3.5 -6.5 -9.5 q-4 -6 -10.5 -18 q-6.5 -12 -14.5 -25 ZM126 28 q9 0 20.5 2 q11.5 2 20.5 2 q9 29 11 42.5 q2 13.5 -3.5 14 q-5.5 0.5 -30.5 -4.5 q-7 -21 -18 -56 Z" /><glyph glyph-name="" unicode="&#x4f11;" d="M154 130 q26 7 35 10 q9 3 17.5 -3.5 q8.5 -6.5 -7 -9.5 q-15.5 -3 -45.5 -9 l0 -11 q10 -15 24.5 -27.5 q14.5 -12.5 25.5 -20.5 q11 -8 33 -14.5 q22 -6.5 4.5 -9 q-17.5 -2.5 -30.5 -1.5 q-13 1 -21 12 q-8 11 -36 50 q0 -45 0.5 -64 q0.5 -19 -1 -34.5 q-1.5 -15.5 -5 -16 q-3.5 -0.5 -8.5 10.5 q-5 11 -1.5 18 q3.5 7 4.5 85 q-11 -20 -28.5 -40 q-17.5 -20 -33.5 -29.5 q-16 -9.5 -1 5.5 q15 15 31.5 39.5 q16.5 24.5 22.5 41.5 q-23 -5 -28 -7 q-5 -2 -15 4 q-10 6 2 7.5 q12 1.5 49 10.5 q0 27 -1.5 42.5 q-1.5 15.5 -6 23.5 q-4.5 8 0.5 8 q5 0 16 -4.5 q11 -4.5 7 -11 q-4 -6.5 -4 -55.5 ZM58 125 q11 -6 10 -15.5 q-1 -9.5 -1 -14.5 l0 -20 q0 -15 0.5 -41 q0.5 -26 -4.5 -35 q-5 -9 -9.5 4 q-4.5 13 -2.5 21.5 q2 8.5 4 27 q2 18.5 1 42 q-1 23.5 -2 24.5 q-8 -12 -20.5 -24.5 q-12.5 -12.5 -21 -17 q-8.5 -4.5 4.5 10 q13 14.5 25.5 38.5 q12.5 24 18.5 39.5 q6 15.5 4.5 23.5 q-1.5 8 7 4.5 q8.5 -3.5 13.5 -8.5 q5 -5 3 -7 q-2 -2 -6.5 -8 q-4.5 -6 -11.5 -19.5 q-7 -13.5 -13 -24.5 Z" /><glyph glyph-name="" unicode="&#x4f1a;" d="M109 63 q15 -13 7.5 -18 q-7.5 -5 -15.5 -13 q-8 -8 -15.5 -16 q-7.5 -8 2 -7 q9.5 1 26.5 2.5 q17 1.5 42 3.5 q-10 18 -14.5 25.5 q-4.5 7.5 3.5 4.5 q8 -3 20.5 -12.5 q12.5 -9.5 15.5 -22.5 q3 -13 0 -20 q-3 -7 -10 2.5 q-7 9.5 -12 16.5 q-39 -6 -59 -10.5 q-20 -4.5 -30 -9 q-10 -4.5 -11.5 0.5 q-1.5 5 -1 10.5 q0.5 5.5 6 8.5 q5.5 3 21 21.5 q15.5 18.5 15.5 30.5 q-18 -3 -28 -5 q-10 -2 -20 5 q-10 7 2 7 q13 0 38 3 q25 3 48.5 7.5 q23.5 4.5 31.5 5.5 q8 1 15 -5 q7 -6 -2 -7.5 q-9 -1.5 -24 -3 q-15 -1.5 -52 -5.5 ZM126 185 q18 -19 38 -39 q20 -20 37 -30 q17 -10 34.5 -16 q17.5 -6 5.5 -8 q-12 -2 -30 -2 q-17 0 -25.5 11 q-8.5 11 -24 29.5 q-15.5 18.5 -38.5 47.5 q-16 -25 -30 -42.5 q-14 -17.5 -31 -33 q-17 -15.5 -38.5 -25 q-21.5 -9.5 -4.5 3 q17 12.5 35 29.5 q18 17 32 37 q14 20 20.5 34 q6.5 14 5 23 q-1.5 9 13.5 -1 q8 -6 6 -9.5 q-2 -3.5 -5 -8.5 ZM115 114 q13 3 22 5.5 q9 2.5 15.5 -4 q6.5 -6.5 -20 -11.5 q-26.5 -5 -33.5 -4.5 q-7 0.5 -12.5 4 q-5.5 3.5 5 5.5 q10.5 2 23.5 5 Z" /><glyph glyph-name="" unicode="&#x4f20;" d="M169 152 q16 3 24.5 4 q8.5 1 15.5 -4.5 q7 -5.5 -8 -8 q-15 -2.5 -36 -5.5 q-3 -13 -7 -28 q40 5 53.5 8 q13.5 3 23 -4 q9.5 -7 -5 -8 q-14.5 -1 -32.5 -2.5 q-18 -1.5 -42 -5.5 q-5 -20 -6.5 -26.5 q-1.5 -6.5 2.5 -6 q4 0.5 16.5 3.5 q12.5 3 17 7.5 q4.5 4.5 11.5 0 q7 -4.5 12.5 -10 q5.5 -5.5 -3 -9.5 q-8.5 -4 -34.5 -43 q9 -7 13 -13 q4 -6 1 -14.5 q-3 -8.5 -12.5 -1 q-9.5 7.5 -19.5 16 q-10 8.5 -18.5 17.5 q-8.5 9 -0.5 8.5 q8 -0.5 30 -9.5 q14 28 16.5 37 q2.5 9 -3.5 8 q-6 -1 -17.5 -4.5 q-11.5 -3.5 -20 -11 q-8.5 -7.5 -13 0.5 q-4.5 8 2 13 q6.5 5 14.5 36 q-22 -4 -32 -6.5 q-10 -2.5 -20 4 q-10 6.5 3 6 q13 -0.5 52 7.5 q3 11 6 28 q-10 -2 -20 -2 q-9 0 -16.5 4 q-7.5 4 5 5.5 q12.5 1.5 34.5 6.5 q2 13 2.5 26 q0.5 13 -2 20.5 q-2.5 7.5 5.5 5.5 q8 -2 15 -6.5 q7 -4.5 3 -11 q-4 -6.5 -10 -32.5 ZM67 120 q13 -13 11.5 -25.5 q-1.5 -12.5 -1.5 -51.5 q-2 -41 -5.5 -48 q-3.5 -7 -9 5.5 q-5.5 12.5 -2.5 22 q3 9.5 4.5 27 q1.5 17.5 2 37.5 q0.5 20 -3.5 26 q-10 -12 -20 -22.5 q-10 -10.5 -23 -19.5 q-13 -9 5 11 q18 20 31 43 q13 23 18.5 37.5 q5.5 14.5 4 22.5 q-1.5 8 6 5 q7.5 -3 13.5 -8 q6 -5 2 -8 q-4 -3 -12 -17.5 q-8 -14.5 -21 -36.5 Z" /><glyph glyph-name="" unicode="&#x4f24;" d="M170 98 q24 4 30.5 7.5 q6.5 3.5 12.5 1 q6 -2.5 12 -7.5 q6 -5 2.5 -8.5 q-3.5 -3.5 -6 -14.5 q-2.5 -11 -5.5 -27 q-3 -16 -10.5 -32.5 q-7.5 -16.5 -20 -23 q-12.5 -6.5 -12.5 3.5 q0 10 -8 19 q-8 9 1.5 4.5 q9.5 -4.5 13 -5.5 q3.5 -1 8 2 q4.5 3 9.5 17.5 q5 14.5 8.5 35 q3.5 20.5 0 23.5 q-3.5 3 -11.5 2 q-8 -1 -25 -5 q-9 -32 -18 -48.5 q-9 -16.5 -21.5 -27 q-12.5 -10.5 -28.5 -17.5 q-16 -7 0.5 5.5 q16.5 12.5 30.5 32 q14 19.5 22 52.5 q-16 -4 -22.5 -5.5 q-6.5 -1.5 -14.5 4.5 q-8 6 2 5.5 q10 -0.5 37 3.5 q2 9 3 18 q1 9 -1.5 16.5 q-2.5 7.5 11 2.5 q13.5 -5 9.5 -9.5 q-4 -4.5 -8 -24.5 ZM75 128 q14 -9 11.5 -15 q-2.5 -6 -2.5 -19 q0 -12 -0.5 -44.5 q-0.5 -32.5 -4.5 -46 q-4 -13.5 -9.5 -2.5 q-5.5 11 -2 24.5 q3.5 13.5 5 43 q1.5 29.5 0.5 39.5 q-1 10 -3 12 q-11 -14 -22.5 -25.5 q-11.5 -11.5 -25 -19.5 q-13.5 -8 1.5 7 q15 15 29.5 36 q14.5 21 24 42.5 q9.5 21.5 8 28 q-1.5 6.5 6.5 3 q8 -3.5 11.5 -7.5 q3.5 -4 -0.5 -8 q-4 -4 -8 -11.5 q-4 -7.5 -20 -36.5 ZM147 147 q23 3 44 9.5 q21 6.5 29.5 2 q8.5 -4.5 -1.5 -8.5 q-10 -4 -25.5 -6.5 q-15.5 -2.5 -27 -3.5 q-11.5 -1 -22.5 1 q-7 -8 -16 -16.5 q-9 -8.5 -21 -15.5 q-12 -7 2 8 q14 15 29.5 40 q15.5 25 13 33.5 q-2.5 8.5 10.5 1.5 q13 -7 8 -12 q-5 -5 -11 -14 q-6 -9 -12 -19 Z" /><glyph glyph-name="" unicode="&#x4f34;" d="M164 115 q11 2 19.5 4 q8.5 2 15.5 -3.5 q7 -5.5 -2 -7.5 q-9 -2 -33 -5 l0 -24 q32 5 44 7.5 q12 2.5 21 -1.5 q9 -4 9 -9 q0 -4 -18 -3.5 q-18 0.5 -56 -3.5 q0 -34 -2 -61 q-2 -27 -6 -28 q-4 -1 -4.5 16.5 q-0.5 17.5 -0.5 70.5 q-22 -3 -31.5 -5 q-9.5 -2 -16 -4 q-6.5 -2 -17.5 4.5 q-11 6.5 2.5 7 q13.5 0.5 62.5 8.5 l0 23 l-24 -4 q-6 -1 -14 4.5 q-8 5.5 4 6.5 q12 1 34 5 q0 48 -1 61.5 q-1 13.5 -6.5 22.5 q-5.5 9 16.5 1 q12 -4 9 -13.5 q-3 -9.5 -4 -22.5 q-1 -13 -1 -47 ZM64 120 q11 -10 10 -19.5 q-1 -9.5 -1.5 -53 q-0.5 -43.5 -4 -50 q-3.5 -6.5 -9.5 5.5 q-6 12 -2.5 23.5 q3.5 11.5 4.5 33.5 q1 22 1 35 q0 14 -3 20 q-6 -9 -17 -20 q-11 -11 -23 -18 q-12 -7 -1.5 3.5 q10.5 10.5 23 27.5 q12.5 17 24 41.5 q11.5 24.5 9.5 34 q-2 9.5 11 1.5 q15 -8 10.5 -12.5 q-4.5 -4.5 -13.5 -20.5 l-18 -32 ZM213 162 q7 -6 1.5 -8 q-5.5 -2 -14.5 -8 q-9 -6 -21.5 -11.5 q-12.5 -5.5 -4 2.5 q8.5 8 13 16 q4.5 8 4 15 q-0.5 7 7 4 q7.5 -3 14.5 -10 ZM116 130 q-8 8 -10 16 q-2 8 10.5 2.5 q12.5 -5.5 14.5 -13 q2 -7.5 -1.5 -11.5 q-3.5 -4 -13.5 6 Z" /><glyph glyph-name="" unicode="&#x4f46;" d="M185 73 q-25 -2 -54 -5 q-2 -9 -5 -6.5 q-3 2.5 -4.5 18 q-1.5 15.5 -4.5 37.5 q-3 22 -7 29.5 q-4 7.5 2 7 q6 -0.5 10.5 -2.5 q4.5 -2 32.5 2.5 q28 4.5 33 8 q5 3.5 12 0.5 q7 -3 15.5 -7.5 q8.5 -4.5 3.5 -10.5 q-5 -6 -8 -26 q-3 -20 -8 -36.5 q-5 -16.5 -8.5 -18.5 q-3.5 -2 -9.5 10 ZM131 77 q14 2 30 5 q16 3 21.5 -0.5 q5.5 -3.5 8.5 14 q3 17.5 4 34.5 q1 17 -3 18.5 q-4 1.5 -19 0 q-15 -1.5 -45 -6.5 l2 -28 q8 0 25.5 4.5 q17.5 4.5 22.5 0 q5 -4.5 -4 -8 q-9 -3.5 -22.5 -5 q-13.5 -1.5 -21.5 3.5 l1 -32 ZM62 127 q14 -8 13.5 -17 q-0.5 -9 -0.5 -34 q0 -24 -0.5 -46 q-0.5 -22 -4 -32 q-3.5 -10 -9.5 1.5 q-6 11.5 -3.5 23 q2.5 11.5 5 29.5 q2.5 18 1.5 41 q-1 23 -7 28 q-18 -23 -37 -35 q-19 -12 -4 4.5 q15 16.5 27 33.5 q12 17 22 37.5 q10 20.5 8.5 30 q-1.5 9.5 6 6 q7.5 -3.5 14 -8.5 q6.5 -5 2 -8 q-4.5 -3 -10.5 -14 q-6 -11 -23 -40 ZM91 22 q-10 7 2 7 q12 0 48 4.5 q36 4.5 62 7.5 q26 3 33.5 -2.5 q7.5 -5.5 8.5 -10 q1 -4.5 -15 -3 q-16 1.5 -32.5 1 q-16.5 -0.5 -42.5 -3.5 q-26 -3 -39.5 -5.5 q-13.5 -2.5 -24.5 4.5 Z" /><glyph glyph-name="" unicode="&#x4f4d;" d="M60 107 q15 -11 13.5 -23 q-1.5 -12 -2 -41.5 q-0.5 -29.5 -4 -44.5 q-3.5 -15 -10 -2.5 q-6.5 12.5 -3 22.5 q3.5 10 4.5 24.5 q1 14.5 1 33.5 q0 19 -3 25 q-11 -13 -21 -22.5 q-10 -9.5 -20.5 -14.5 q-10.5 -5 2.5 8.5 q13 13.5 26 33.5 q13 20 23 46 q10 26 8 34 q-2 8 4.5 5.5 q6.5 -2.5 13 -8 q6.5 -5.5 3 -8.5 q-3.5 -3 -11 -19 q-7.5 -16 -24.5 -49 ZM155 30 q40 5 56 8 q16 3 24.5 -5 q8.5 -8 6 -9.5 q-2.5 -1.5 -21.5 -1.5 q-18 0 -46 -2.5 q-28 -2.5 -51 -7.5 q-23 -5 -31 -4 q-8 1 -13 6 q-5 5 8.5 5.5 q13.5 0.5 59.5 9.5 q7 13 15.5 36 q8.5 23 6 31 q-2.5 8 5 6 q7.5 -2 15.5 -7 q8 -5 2.5 -9 q-5.5 -4 -16 -22 q-10.5 -18 -20.5 -34 ZM141 122 q24 6 37.5 10 q13.5 4 21.5 -1 q8 -5 -1 -8.5 q-9 -3.5 -32.5 -8.5 q-23.5 -5 -35.5 -6 q-12 -1 -18.5 2.5 q-6.5 3.5 -0.5 4.5 q6 1 29 7 ZM148 181 q12 -2 18 -10 q6 -8 2 -15 q-4 -7 -16.5 2 q-12.5 9 -21 17.5 q-8.5 8.5 -1.5 8.5 q7 0 19 -3 ZM115 65 q-3 10 -2 13.5 q1 3.5 10 -2 q9 -5.5 11.5 -13.5 q2.5 -8 -0.5 -16 q-3 -8 -9 0.5 q-6 8.5 -10 17.5 Z" /><glyph glyph-name="" unicode="&#x4f4e;" d="M151 155 q11 -5 10.5 -13 q-0.5 -8 5.5 -30 q16 6 25.5 11.5 q9.5 5.5 17.5 1.5 q8 -4 -1.5 -10 q-9.5 -6 -38.5 -15 q20 -48 37.5 -66 q17.5 -18 20 -14.5 q2.5 3.5 4.5 13 q2 9.5 5 19.5 q3 10 2 -14 q-1 -24 3.5 -37.5 q4.5 -13.5 -9 -8.5 q-13.5 5 -27 20.5 q-13.5 15.5 -25.5 34.5 q-12 19 -23 49 q-18 -5 -25 -3 q-7 2 1.5 5.5 q8.5 3.5 20.5 8.5 q-5 27 -12 44 q-11 -5 -20 -10 l0 -92 q0 -4 8 2.5 q8 6.5 19.5 13.5 q11.5 7 -10.5 -17.5 q-22 -24.5 -26.5 -32.5 q-4.5 -8 -10.5 3 q-6 11 0.5 18 q6.5 7 7.5 23.5 q1 16.5 1.5 45 q0.5 28.5 -5 35.5 q-5.5 7 -0.5 7.5 q5 0.5 15 -0.5 q26 18 33.5 25.5 q7.5 7.5 7 13.5 q-0.5 6 9.5 4 q10 -2 17.5 -7 q7.5 -5 -4 -9.5 q-11.5 -4.5 -34.5 -18.5 ZM65 121 q13 -11 12 -24.5 q-1 -13.5 -3 -52.5 q-2 -39 -5 -50 q-3 -11 -10 1.5 q-7 12.5 -3 24 q4 11.5 6.5 29.5 q2.5 18 2.5 39 q0 21 -5 26 q-17 -25 -35 -37 q-18 -12 -5.5 2 q12.5 14 24 32.5 q11.5 18.5 21.5 41.5 q10 23 7.5 32 q-2.5 9 5 6.5 q7.5 -2.5 14.5 -8 q7 -5.5 1 -11.5 q-6 -6 -13.5 -22 q-7.5 -16 -14.5 -29 ZM170 31 q6 -3 5 -10.5 q-1 -7.5 -6 -7 q-5 0.5 -12.5 6 q-7.5 5.5 -13 12 q-5.5 6.5 8 5 q13.5 -1.5 18.5 -5.5 Z" /><glyph glyph-name="" unicode="&#x4f4f;" d="M161 125 q9 -8 6.5 -13 q-2.5 -5 -2.5 -26 q11 2 21 4.5 q10 2.5 16.5 -2 q6.5 -4.5 -3 -8 q-9.5 -3.5 -34.5 -7.5 l-1 -45 l50 7 q10 2 18.5 -2.5 q8.5 -4.5 9 -9 q0.5 -4.5 -16 -3.5 q-16.5 1 -29.5 0 q-13 -1 -23 -2 q-10 -1 -23.5 -3.5 q-13.5 -2.5 -23.5 -4.5 q-10 -2 -18.5 -4 q-8.5 -2 -18.5 4 q-10 6 -1 6.5 q9 0.5 17.5 1.5 q8.5 1 47.5 7 l0 45 q-10 -1 -19 -2 q-9 -1 -18.5 2 q-9.5 3 6 5.5 q15.5 2.5 31.5 7.5 q0 21 -0.5 26.5 q-0.5 5.5 -3.5 12.5 q-19 -3 -28 -3 q-8 0 -15.5 3 q-7.5 3 5.5 5 q13 2 36 8 q23 6 40 10 q17 4 26.5 -1 q9.5 -5 -8 -9.5 q-17.5 -4.5 -44.5 -9.5 ZM67 117 q10 -7 11 -11.5 q1 -4.5 0 -12.5 q-1 -8 -1.5 -27.5 q-0.5 -19.5 -0.5 -40.5 q0 -20 -4 -30 q-4 -10 -9.5 2 q-5.5 12 -2.5 22 q3 10 4.5 31 q1.5 21 2 37 q0.5 16 -4.5 23 q-10 -12 -21 -23 q-11 -11 -23 -17 q-12 -6 -1 5 q11 11 26.5 32 q15.5 21 27.5 46 q12 25 10 34 q-2 9 6 6 q8 -3 14 -9.5 q6 -6.5 1.5 -9.5 q-4.5 -3 -14.5 -20.5 q-10 -17.5 -21 -36.5 ZM146 173 q-7 9 -8 12.5 q-1 3.5 10.5 1 q11.5 -2.5 20.5 -8.5 q9 -6 5.5 -17.5 q-3.5 -11.5 -12 -3.5 q-8.5 8 -16.5 16 Z" /><glyph glyph-name="" unicode="&#x4f53;" d="M154 140 q15 3 30.5 7.5 q15.5 4.5 24.5 -2 q9 -6.5 -1.5 -8.5 q-10.5 -2 -51.5 -7 q19 -30 41.5 -51.5 q22.5 -21.5 39.5 -28 q17 -6.5 6.5 -8.5 q-10.5 -2 -25.5 -0.5 q-15 1.5 -20 9.5 q-5 8 -14.5 23 q-9.5 15 -29.5 49 l0 -65 q9 2 14 3.5 q5 1.5 12 -3 q7 -4.5 0 -8 q-7 -3.5 -26 -6.5 q1 -23 -1 -43.5 q-2 -20.5 -9 -10.5 q-7 10 -4.5 20.5 q2.5 10.5 3.5 31.5 q-15 -1 -25 1.5 q-10 2.5 -2 5 q8 2.5 27 6.5 l0 57 q-14 -26 -31 -45 q-17 -19 -30.5 -25.5 q-13.5 -6.5 1.5 7.5 q15 14 30 37 q15 23 21 40 q-13 -3 -22 -4.5 q-9 -1.5 -16.5 3.5 q-7.5 5 2.5 6 q10 1 21.5 3 q11.5 2 23.5 4 q0 24 -1.5 37 q-1.5 13 -4.5 20 q-3 7 1.5 6.5 q4.5 -0.5 13.5 -4 q9 -3.5 6.5 -9.5 q-2.5 -6 -4.5 -48 ZM62 124 q16 -7 13.5 -20 q-2.5 -13 -3 -50.5 q-0.5 -37.5 -4.5 -48.5 q-4 -11 -10 1 q-6 12 -2.5 20 q3.5 8 5.5 27.5 q2 19.5 2 39.5 q0 20 -4 25 q-11 -15 -23.5 -26.5 q-12.5 -11.5 -22 -17 q-9.5 -5.5 2 7 q11.5 12.5 25 31.5 q13.5 19 23.5 42 q10 23 8.5 31.5 q-1.5 8.5 8 4.5 q9.5 -4 13 -7.5 q3.5 -3.5 0.5 -6.5 q-3 -3 -9 -15 q-6 -12 -23 -38 Z" /><glyph glyph-name="" unicode="&#x4f59;" d="M121 101 q8 -6 7 -9.5 q-1 -3.5 -1 -13.5 q34 6 47 9 q13 3 20.5 -3.5 q7.5 -6.5 2.5 -8.5 q-5 -2 -14 -2 q-8 0 -22.5 -1 q-14.5 -1 -33.5 -3 q1 -42 2.5 -58 q1.5 -16 -8.5 -29 q-10 -13 -13.5 -3 q-3.5 10 -15.5 17 q-12 7 -2.5 6 q9.5 -1 16.5 -1 q8 0 8.5 15 q0.5 15 -1.5 51 q-38 -6 -48.5 -9 q-10.5 -3 -21 4 q-10.5 7 2.5 7 q13 0 66 8 q-1 14 -4 23 q-10 -2 -16.5 -1.5 q-6.5 0.5 -12 4.5 q-5.5 4 5 5 q10.5 1 26 4.5 q15.5 3.5 27.5 7 q12 3.5 18 -1.5 q6 -5 -4 -8.5 q-10 -3.5 -31 -8.5 ZM125 180 q30 -28 44.5 -39 q14.5 -11 26.5 -18.5 q12 -7.5 26.5 -12 q14.5 -4.5 19.5 -8 q5 -3.5 -12 -5 q-17 -1.5 -28.5 -1 q-11.5 0.5 -20 10.5 q-8.5 10 -23 26.5 q-14.5 16.5 -37.5 41.5 q-22 -35 -43.5 -57 q-21.5 -22 -44 -32.5 q-22.5 -10.5 -3.5 3.5 q19 14 37 35 q18 21 31 43.5 q13 22.5 11.5 32 q-1.5 9.5 6.5 6.5 q8 -3 14 -8.5 q6 -5.5 2.5 -7.5 q-3.5 -2 -7.5 -10 ZM175 41 q10 -3 18 -11 q8 -8 5.5 -17 q-2.5 -9 -13.5 0 q-11 9 -24 21 q-13 12 -4.5 11 q8.5 -1 18.5 -4 ZM61 36 q5 6 9 12 q4 6 2.5 -10 q-1.5 -16 -13 -30 q-11.5 -14 -14 -2.5 q-2.5 11.5 4 18.5 q6.5 7 11.5 12 Z" /><glyph glyph-name="" unicode="&#x4f5c;" d="M139 136 q6 -1 23.5 3.5 q17.5 4.5 34 10 q16.5 5.5 27 2.5 q10.5 -3 7.5 -7 q-3 -4 -29.5 -10 q-26.5 -6 -44.5 -8 q13 -8 11.5 -13 q-1.5 -5 -2.5 -20 q16 3 27.5 6.5 q11.5 3.5 21 -1.5 q9.5 -5 -11.5 -9.5 q-21 -4.5 -37 -3.5 l0 -37 q18 4 30.5 7.5 q12.5 3.5 23.5 -2.5 q11 -6 -11 -10 q-22 -4 -43 -2 q0 -48 -4.5 -61 q-4.5 -13 -10 -2 q-5.5 11 -2.5 22.5 q3 11.5 4 28 q1 16.5 1.5 50.5 q0.5 34 -4.5 46 q-10 -2 -15 4 q-24 -31 -37 -39 q-13 -8 -1 6 q12 14 28.5 43.5 q16.5 29.5 20.5 41.5 q4 12 2.5 20 q-1.5 8 9.5 1.5 q11 -6.5 12.5 -10 q1.5 -3.5 -1.5 -5.5 q-3 -2 -11 -17.5 q-8 -15.5 -19 -34.5 ZM72 128 q13 -10 11.5 -17.5 q-1.5 -7.5 -1.5 -30.5 q0 -22 -0.5 -44 q-0.5 -22 -3 -32.5 q-2.5 -10.5 -9.5 2.5 q-7 13 -3.5 23 q3.5 10 5 32 q1.5 22 1.5 36 q0 15 -5 26 q-10 -13 -21 -24.5 q-11 -11.5 -26.5 -21 q-15.5 -9.5 -1 5 q14.5 14.5 27 32 q12.5 17.5 20 31 q7.5 13.5 12 24 q4.5 10.5 3 16 q-1.5 5.5 2.5 6 q4 0.5 13 -7 q9 -7.5 6.5 -10 q-2.5 -2.5 -5.5 -6.5 q-3 -4 -12 -18 q-9 -14 -13 -22 Z" /><glyph glyph-name="" unicode="&#x4f60;" d="M73 129 q12 -11 9.5 -18 q-2.5 -7 -2.5 -26 q0 -18 -1 -44 q-1 -26 -5 -37.5 q-4 -11.5 -9.5 1.5 q-5.5 13 -2 22 q3.5 9 5 27.5 q1.5 18.5 1.5 37.5 q0 20 -2 28 q-12 -15 -21.5 -23.5 q-9.5 -8.5 -22.5 -16 q-13 -7.5 0.5 6 q13.5 13.5 26 30.5 q12.5 17 22.5 39 q10 22 8.5 33 q-1.5 11 12.5 1 q14 -10 10 -14 q-4 -4 -9.5 -13 q-5.5 -9 -20.5 -34 ZM154 125 q-7 -2 -11.5 -3.5 q-4.5 -1.5 -11.5 4.5 q-11 -15 -23 -23.5 q-12 -8.5 -4 2.5 q8 11 18.5 27.5 q10.5 16.5 17 34.5 q6.5 18 4.5 28 q-2 10 13 2 q15 -8 10 -13.5 q-5 -5.5 -11 -16.5 q-6 -11 -21 -36 q6 0 20.5 3.5 q14.5 3.5 24.5 7 q10 3.5 15.5 7 q5.5 3.5 13.5 0.5 q8 -3 17 -10 q9 -7 -4 -11 q-13 -4 -25.5 -17.5 q-12.5 -13.5 -5.5 4 q7 17.5 6 19.5 q-1 2 -7.5 0.5 q-6.5 -1.5 -27.5 -6.5 l-8 -3 ZM152 112 q7 0 15 -4 q8 -4 5 -9.5 q-3 -5.5 -3 -31.5 q0 -25 1.5 -42.5 q1.5 -17.5 -7.5 -30.5 q-9 -13 -14 -3 q-5 10 -17 17.5 q-12 7.5 -0.5 5.5 q11.5 -2 17.5 -1.5 q6 0.5 6.5 21 q0.5 20.5 -0.5 42.5 q-1 22 -5 29 q-4 7 2 7 ZM202 67 q22 -8 26.5 -18 q4.5 -10 1.5 -19.5 q-3 -9.5 -15 4 q-12 13.5 -23.5 27.5 q-11.5 14 10.5 6 ZM115 74 q5 13 5.5 -5 q0.5 -18 -9 -34.5 q-9.5 -16.5 -13 -5.5 q-3.5 11 4 22 q7.5 11 12.5 23 Z" /><glyph glyph-name="" unicode="&#x4f9d;" d="M171 80 q18 30 16 38.5 q-2 8.5 5.5 6 q7.5 -2.5 14 -8.5 q6.5 -6 -1 -10.5 q-7.5 -4.5 -30.5 -30.5 q9 -11 23 -23.5 q14 -12.5 37.5 -19 q23.5 -6.5 4 -9 q-19.5 -2.5 -31.5 -1.5 q-12 1 -25 20 l-23 35 q-10 15 -24 28 q-9 -12 -14 -18 q6 -3 6 -11 q0 -8 -0.5 -32.5 q-0.5 -24.5 2.5 -22.5 l21 12 q18 10 1.5 -6 q-16.5 -16 -23 -25.5 q-6.5 -9.5 -9.5 -13 q-3 -3.5 -8.5 5.5 q-5.5 9 -2.5 14.5 q3 5.5 6.5 19.5 q3.5 14 2.5 31 q-1 17 -4 19 q-5 -6 -15 -14 q-10 -8 -21.5 -12.5 q-11.5 -4.5 2 6.5 q13.5 11 32 36 q18.5 25 23.5 40 q-14 -4 -24.5 -6.5 q-10.5 -2.5 -20.5 3 q-10 5.5 4.5 7 q14.5 1.5 45 9 q30.5 7.5 43.5 12.5 q13 5 21 -2 q8 -7 -9 -11 q-17 -4 -47 -9 q10 -7 7 -10 l-15 -15 q8 -5 15.5 -13.5 q7.5 -8.5 15.5 -18.5 ZM57 123 q9 -5 11.5 -9.5 q2.5 -4.5 1 -14.5 q-1.5 -10 -1.5 -27 q0 -17 -1 -46 q-1 -29 -5 -33.5 q-4 -4.5 -10 6 q-6 10.5 -2.5 21.5 q3.5 11 5.5 33.5 q2 22.5 2.5 40 q0.5 17.5 -3.5 23.5 q-18 -23 -36 -34.5 q-18 -11.5 -4 4.5 q14 16 24 30.5 q10 14.5 17 28 q7 13.5 10.5 22.5 q3.5 9 3 18 q-0.5 9 6 6 q6.5 -3 13.5 -10 q7 -7 3 -9.5 q-4 -2.5 -13 -18.5 q-9 -16 -21 -31 ZM148 198 q12 -2 16.5 -11 q4.5 -9 1.5 -15 q-3 -6 -13.5 1.5 q-10.5 7.5 -19 16.5 q-8.5 9 -3 9.5 q5.5 0.5 17.5 -1.5 Z" /><glyph glyph-name="" unicode="&#x4fa0;" d="M149 67 q-9 -29 -26 -44 q-17 -15 -34.5 -20.5 q-17.5 -5.5 1 6 q18.5 11.5 30.5 29 q12 17.5 16 34.5 q-25 -5 -33 -7 q-8 -2 -18 4.5 q-10 6.5 5 6.5 q15 0 48 7 q5 17 5 53 q-20 -5 -26.5 -4.5 q-6.5 0.5 -12 5 q-5.5 4.5 4.5 5.5 q10 1 34 6 q0 23 -1 32 q-1 9 -4 15.5 q-3 6.5 7 4 q10 -2.5 13.5 -5.5 q3.5 -3 0.5 -8 q-3 -5 -3 -35 q14 3 24 6 q10 3 17 -2 q7 -5 0 -7.5 q-7 -2.5 -41 -8.5 q-1 -39 -4 -54 q30 5 43 8 q13 3 22.5 -5 q9.5 -8 -7.5 -8.5 q-17 -0.5 -59 -5.5 q28 -37 45.5 -49.5 q17.5 -12.5 26.5 -16.5 q9 -4 19 -7 q10 -3 -3.5 -5.5 q-13.5 -2.5 -27 -1.5 q-13.5 1 -20 8.5 q-6.5 7.5 -13 18 q-6.5 10.5 -29.5 46.5 ZM59 122 q12 -10 10 -24 q-2 -14 -3 -55 q-1 -41 -5.5 -50 q-4.5 -9 -9.5 2.5 q-5 11.5 -2 22 q3 10.5 5.5 30 q2.5 19.5 2.5 40.5 q0 22 -2 27 q-10 -12 -20 -22.5 q-10 -10.5 -20.5 -16 q-10.5 -5.5 -2 3 q8.5 8.5 21 26 q12.5 17.5 20 32 q7.5 14.5 11.5 26.5 q4 12 3 19 q-1 7 5 5 q6 -2 13 -7.5 q7 -5.5 3 -9 q-4 -3.5 -12.5 -19 q-8.5 -15.5 -17.5 -30.5 ZM194 128 q9 -4 3.5 -7 q-5.5 -3 -11.5 -9.5 q-6 -6.5 -15.5 -13 q-9.5 -6.5 -3.5 2 q6 8.5 9 17 q3 8.5 2 12 q-1 3.5 3 3.5 q5 0 13 -5 ZM105 106 q-5 9 -5.5 12.5 q-0.5 3.5 8.5 0.5 q9 -3 13 -9 q4 -6 1.5 -12.5 q-2.5 -6.5 -7.5 -3 q-5 3.5 -10 11.5 Z" /></font>
</defs>
</svg>
